<svg width="84" height="68" viewBox="0 0 84 68" fill="none" xmlns="http://www.w3.org/2000/svg">
<path d="M53 36C53 43.1797 46.732 49 39 49C31.268 49 25 43.1797 25 36C25 28.8203 31.268 23 39 23C46.732 23 53 28.8203 53 36Z" fill="url(#paint0_linear_3_27)"/>
<path d="M16 14C16 16.2091 14.2091 18 12 18C9.79086 18 8 16.2091 8 14C8 11.7909 9.79086 10 12 10C14.2091 10 16 11.7909 16 14Z" fill="url(#paint1_linear_3_27)"/>
<path d="M54 59.5C54 60.8807 52.8807 62 51.5 62C50.1193 62 49 60.8807 49 59.5C49 58.1193 50.1193 57 51.5 57C52.8807 57 54 58.1193 54 59.5Z" fill="url(#paint2_linear_3_27)"/>
<path d="M84 48C84 51.866 80.866 55 77 55C73.134 55 70 51.866 70 48C70 44.134 73.134 41 77 41C80.866 41 84 44.134 84 48Z" fill="url(#paint3_linear_3_27)"/>
<path d="M12 52C12 55.3137 9.31371 58 6 58C2.68629 58 0 55.3137 0 52C0 48.6863 2.68629 46 6 46C9.31371 46 12 48.6863 12 52Z" fill="url(#paint4_linear_3_27)"/>
<path d="M71 7C71 10.866 67.866 14 64 14C60.134 14 57 10.866 57 7C57 3.13401 60.134 0 64 0C67.866 0 71 3.13401 71 7Z" fill="url(#paint5_linear_3_27)"/>
<path d="M13 15.8037L13.595 15L32.0801 28.6859L31.485 29.4896L13 15.8037Z" fill="url(#paint6_linear_3_27)"/>
<path d="M41 39.4449L41.8956 39L52.1272 59.5989L51.2316 60.0437L41 39.4449Z" fill="url(#paint7_linear_3_27)"/>
<path d="M51 37.9269L51.3754 37L72.6936 45.6331L72.3183 46.56L51 37.9269Z" fill="url(#paint8_linear_3_27)"/>
<path d="M61.2334 10L62.0189 10.6188L47.7855 28.6857L47 28.0669L61.2334 10Z" fill="url(#paint9_linear_3_27)"/>
<path d="M9.40455 51.2193L9 50.3047L30.0338 41L30.4384 41.9145L9.40455 51.2193Z" fill="url(#paint10_linear_3_27)"/>
<path d="M32.84 41V31.2H37.04C37.3107 31.2 37.544 31.298 37.74 31.494C37.936 31.69 38.034 31.928 38.034 32.208V35.218C38.034 35.498 37.936 35.736 37.74 35.932C37.544 36.128 37.3107 36.226 37.04 36.226H36.746L38.034 41H36.746L35.444 36.226H34.142V41H32.84ZM34.142 34.924H36.242C36.3727 34.924 36.4893 34.8773 36.592 34.784C36.6947 34.6813 36.746 34.56 36.746 34.42V33.006C36.746 32.866 36.6947 32.7493 36.592 32.656C36.4893 32.5533 36.3727 32.502 36.242 32.502H34.142V34.924ZM41.663 41L39.745 31.2H41.047L42.349 37.822L43.651 31.2H44.953L43.021 41H41.663Z" fill="#1E1E1E"/>
<g clip-path="url(#clip0_3_27)">
<path d="M77.35 22.45V20.658C77.4072 20.625 77.4519 20.574 77.4772 20.513C77.5024 20.452 77.5069 20.3843 77.4898 20.3206C77.4727 20.2568 77.435 20.2004 77.3826 20.1602C77.3302 20.12 77.266 20.0982 77.2 20.0982C77.134 20.0982 77.0698 20.12 77.0174 20.1602C76.965 20.2004 76.9273 20.2568 76.9102 20.3206C76.8931 20.3843 76.8976 20.452 76.9228 20.513C76.9481 20.574 76.9928 20.625 77.05 20.658V22.6C77.05 22.6398 77.0658 22.6779 77.0939 22.7061C77.1221 22.7342 77.1602 22.75 77.2 22.75H77.55V24.25H77.1C77.0602 24.25 77.0221 24.2658 76.9939 24.2939C76.9658 24.3221 76.95 24.3602 76.95 24.4V26.042C76.8928 26.075 76.8481 26.126 76.8228 26.187C76.7976 26.248 76.7931 26.3157 76.8102 26.3795C76.8273 26.4433 76.865 26.4996 76.9174 26.5398C76.9698 26.58 77.034 26.6018 77.1 26.6018C77.166 26.6018 77.2302 26.58 77.2826 26.5398C77.335 26.4996 77.3727 26.4433 77.3898 26.3795C77.4069 26.3157 77.4024 26.248 77.3772 26.187C77.3519 26.126 77.3072 26.075 77.25 26.042V24.55H78.342C78.375 24.6072 78.426 24.6519 78.487 24.6772C78.548 24.7024 78.6157 24.7069 78.6795 24.6898C78.7432 24.6727 78.7996 24.635 78.8398 24.5826C78.88 24.5302 78.9018 24.4661 78.9018 24.4C78.9018 24.334 78.88 24.2698 78.8398 24.2174C78.7996 24.165 78.7432 24.1273 78.6795 24.1102C78.6157 24.0931 78.548 24.0976 78.487 24.1228C78.426 24.1481 78.375 24.1928 78.342 24.25H77.85V22.75H79.042C79.075 22.8072 79.126 22.8519 79.187 22.8772C79.248 22.9024 79.3157 22.9069 79.3795 22.8898C79.4432 22.8727 79.4996 22.835 79.5398 22.7826C79.58 22.7302 79.6018 22.6661 79.6018 22.6C79.6018 22.534 79.58 22.4698 79.5398 22.4174C79.4996 22.365 79.4432 22.3273 79.3795 22.3102C79.3157 22.2931 79.248 22.2976 79.187 22.3228C79.126 22.3481 79.075 22.3928 79.042 22.45H77.35Z" fill="#E41476"/>
<path d="M80.5 21.12H78.921V19.1C78.921 19.0602 78.9052 19.0221 78.8771 18.9939C78.8489 18.9658 78.8108 18.95 78.771 18.95H73.229C73.1892 18.95 73.1511 18.9658 73.1229 18.9939C73.0948 19.0221 73.079 19.0602 73.079 19.1V21.12H71.5C71.4803 21.12 71.4608 21.1239 71.4426 21.1314C71.4244 21.139 71.4079 21.15 71.3939 21.1639C71.38 21.1779 71.369 21.1944 71.3614 21.2126C71.3539 21.2308 71.35 21.2503 71.35 21.27V23.445C71.35 23.4848 71.3658 23.5229 71.3939 23.5511C71.4221 23.5792 71.4602 23.595 71.5 23.595H72.123V25.718C72.123 25.7578 72.1388 25.7959 72.1669 25.8241C72.1951 25.8522 72.2332 25.868 72.273 25.868H73.7V27.2C73.7 27.2398 73.7158 27.2779 73.7439 27.3061C73.7721 27.3342 73.8102 27.35 73.85 27.35H78.15C78.1898 27.35 78.2279 27.3342 78.2561 27.3061C78.2842 27.2779 78.3 27.2398 78.3 27.2V25.868H79.727C79.7668 25.868 79.8049 25.8522 79.8331 25.8241C79.8612 25.7959 79.877 25.7578 79.877 25.718V23.595H80.5C80.5398 23.595 80.5779 23.5792 80.6061 23.5511C80.6342 23.5229 80.65 23.4848 80.65 23.445V21.27C80.65 21.2503 80.6461 21.2308 80.6386 21.2126C80.6311 21.1944 80.62 21.1779 80.6061 21.1639C80.5921 21.15 80.5756 21.139 80.5574 21.1314C80.5392 21.1239 80.5197 21.12 80.5 21.12ZM73.85 25.568H72.423V23.445C72.423 23.4052 72.4072 23.3671 72.3791 23.3389C72.3509 23.3108 72.3128 23.295 72.273 23.295H71.65V21.42H73.229C73.2688 21.42 73.3069 21.4042 73.3351 21.3761C73.3632 21.3479 73.379 21.3098 73.379 21.27V19.25H75.85V27.05H74V25.718C74 25.6782 73.9842 25.6401 73.9561 25.6119C73.9279 25.5838 73.8898 25.568 73.85 25.568ZM80.35 23.295H79.727C79.6872 23.295 79.6491 23.3108 79.6209 23.3389C79.5928 23.3671 79.577 23.4052 79.577 23.445V25.568H78.15C78.1102 25.568 78.0721 25.5838 78.0439 25.6119C78.0158 25.6401 78 25.6782 78 25.718V27.05H76.15V19.25H78.621V21.27C78.621 21.3098 78.6368 21.3479 78.6649 21.3761C78.6931 21.4042 78.7312 21.42 78.771 21.42H80.35V23.295Z" fill="#E41476"/>
<path d="M74.75 26.042C74.6928 26.075 74.6481 26.126 74.6228 26.187C74.5976 26.248 74.5931 26.3157 74.6102 26.3795C74.6273 26.4433 74.665 26.4996 74.7174 26.5398C74.7698 26.58 74.834 26.6018 74.9 26.6018C74.966 26.6018 75.0302 26.58 75.0826 26.5398C75.135 26.4996 75.1727 26.4433 75.1898 26.3795C75.2069 26.3157 75.2024 26.248 75.1772 26.187C75.1519 26.126 75.1072 26.075 75.05 26.042V24.4C75.05 24.3602 75.0342 24.3221 75.0061 24.2939C74.9779 24.2658 74.9398 24.25 74.9 24.25H74.45V22.75H74.8C74.8398 22.75 74.8779 22.7342 74.9061 22.7061C74.9342 22.6779 74.95 22.6398 74.95 22.6V20.658C75.0072 20.625 75.0519 20.574 75.0772 20.513C75.1024 20.452 75.1069 20.3843 75.0898 20.3206C75.0727 20.2568 75.035 20.2004 74.9826 20.1602C74.9302 20.12 74.866 20.0982 74.8 20.0982C74.734 20.0982 74.6698 20.12 74.6174 20.1602C74.565 20.2004 74.5273 20.2568 74.5102 20.3206C74.4931 20.3843 74.4976 20.452 74.5228 20.513C74.5481 20.574 74.5928 20.625 74.65 20.658V22.45H72.958C72.925 22.3928 72.874 22.3481 72.813 22.3228C72.752 22.2976 72.6843 22.2931 72.6205 22.3102C72.5568 22.3273 72.5004 22.365 72.4602 22.4174C72.42 22.4698 72.3982 22.534 72.3982 22.6C72.3982 22.6661 72.42 22.7302 72.4602 22.7826C72.5004 22.835 72.5568 22.8727 72.6205 22.8898C72.6843 22.9069 72.752 22.9024 72.813 22.8772C72.874 22.8519 72.925 22.8072 72.958 22.75H74.15V24.25H73.658C73.625 24.1928 73.574 24.1481 73.513 24.1228C73.452 24.0976 73.3843 24.0931 73.3205 24.1102C73.2568 24.1273 73.2004 24.165 73.1602 24.2174C73.12 24.2698 73.0982 24.334 73.0982 24.4C73.0982 24.4661 73.12 24.5302 73.1602 24.5826C73.2004 24.635 73.2568 24.6727 73.3205 24.6898C73.3843 24.7069 73.452 24.7024 73.513 24.6772C73.574 24.6519 73.625 24.6072 73.658 24.55H74.75V26.042Z" fill="#E41476"/>
</g>
<path d="M28.8 65.75H28.35V59.6C28.35 59.5602 28.3342 59.5221 28.3061 59.4939C28.2779 59.4658 28.2398 59.45 28.2 59.45H26.8C26.7602 59.45 26.7221 59.4658 26.6939 59.4939C26.6658 59.5221 26.65 59.5602 26.65 59.6V65.75H25.85V61.9C25.85 61.8602 25.8342 61.8221 25.8061 61.7939C25.7779 61.7658 25.7398 61.75 25.7 61.75H24.3C24.2602 61.75 24.2221 61.7658 24.1939 61.7939C24.1658 61.8221 24.15 61.8602 24.15 61.9V65.75H23.35V64.1C23.35 64.0602 23.3342 64.0221 23.3061 63.9939C23.2779 63.9658 23.2398 63.95 23.2 63.95H21.8C21.7602 63.95 21.7221 63.9658 21.6939 63.9939C21.6658 64.0221 21.65 64.0602 21.65 64.1V65.75H21.2C21.1602 65.75 21.1221 65.7658 21.0939 65.7939C21.0658 65.8221 21.05 65.8602 21.05 65.9C21.05 65.9398 21.0658 65.9779 21.0939 66.0061C21.1221 66.0342 21.1602 66.05 21.2 66.05H28.8C28.8398 66.05 28.8779 66.0342 28.9061 66.0061C28.9342 65.9779 28.95 65.9398 28.95 65.9C28.95 65.8602 28.9342 65.8221 28.9061 65.7939C28.8779 65.7658 28.8398 65.75 28.8 65.75ZM26.95 59.75H28.05V65.75H26.95V59.75ZM24.45 62.05H25.55V65.75H24.45V62.05ZM21.95 64.25H23.05V65.75H21.95V64.25Z" fill="#F5F5F5"/>
<path d="M21.3 62.95C21.3398 62.95 21.3779 62.9341 21.406 62.906L25.55 58.762V59.4C25.55 59.4398 25.5658 59.4779 25.5939 59.5061C25.6221 59.5342 25.6602 59.55 25.7 59.55C25.7398 59.55 25.7779 59.5342 25.8061 59.5061C25.8342 59.4779 25.85 59.4398 25.85 59.4V58.4C25.8498 58.3811 25.8461 58.3625 25.839 58.345C25.8315 58.3266 25.8203 58.3098 25.8062 58.2958C25.7922 58.2817 25.7754 58.2705 25.757 58.263C25.739 58.2549 25.7197 58.2505 25.7 58.25H24.7C24.6602 58.25 24.6221 58.2658 24.5939 58.2939C24.5658 58.3221 24.55 58.3602 24.55 58.4C24.55 58.4398 24.5658 58.4779 24.5939 58.5061C24.6221 58.5342 24.6602 58.55 24.7 58.55H25.338L21.194 62.694C21.173 62.715 21.1588 62.7417 21.153 62.7708C21.1472 62.7999 21.1502 62.83 21.1615 62.8574C21.1729 62.8848 21.1921 62.9082 21.2167 62.9247C21.2414 62.9412 21.2704 62.95 21.3 62.95Z" fill="#F5F5F5"/>
<g clip-path="url(#clip1_3_27)">
<path d="M29.8125 7H28.3125C27.5888 7 27 7.58875 27 8.3125V9.8125C27 10.5362 27.5888 11.125 28.3125 11.125H29.8125C30.5362 11.125 31.125 10.5362 31.125 9.8125V8.3125C31.125 7.58875 30.5362 7 29.8125 7ZM30.75 9.8125C30.75 10.3293 30.3293 10.75 29.8125 10.75H28.3125C27.7958 10.75 27.375 10.3293 27.375 9.8125V8.3125C27.375 7.79575 27.7958 7.375 28.3125 7.375H29.8125C30.3293 7.375 30.75 7.79575 30.75 8.3125V9.8125ZM29.4375 8.125H28.6875C28.3774 8.125 28.125 8.37738 28.125 8.6875V9.4375C28.125 9.74763 28.3774 10 28.6875 10H29.4375C29.7476 10 30 9.74763 30 9.4375V8.6875C30 8.37738 29.7476 8.125 29.4375 8.125ZM29.625 9.4375C29.625 9.541 29.541 9.625 29.4375 9.625H28.6875C28.584 9.625 28.5 9.541 28.5 9.4375V8.6875C28.5 8.584 28.584 8.5 28.6875 8.5H29.4375C29.541 8.5 29.625 8.584 29.625 8.6875V9.4375ZM34.6875 7H33.1875C32.4637 7 31.875 7.58875 31.875 8.3125V9.8125C31.875 10.5362 32.4637 11.125 33.1875 11.125H34.6875C35.4113 11.125 36 10.5362 36 9.8125V8.3125C36 7.58875 35.4113 7 34.6875 7ZM35.625 9.8125C35.625 10.3293 35.2046 10.75 34.6875 10.75H33.1875C32.6704 10.75 32.25 10.3293 32.25 9.8125V8.3125C32.25 7.79575 32.6704 7.375 33.1875 7.375H34.6875C35.2046 7.375 35.625 7.79575 35.625 8.3125V9.8125ZM34.3125 8.125H33.5625C33.2524 8.125 33 8.37738 33 8.6875V9.4375C33 9.74763 33.2524 10 33.5625 10H34.3125C34.6226 10 34.875 9.74763 34.875 9.4375V8.6875C34.875 8.37738 34.6226 8.125 34.3125 8.125ZM34.5 9.4375C34.5 9.541 34.4156 9.625 34.3125 9.625H33.5625C33.4594 9.625 33.375 9.541 33.375 9.4375V8.6875C33.375 8.584 33.4594 8.5 33.5625 8.5H34.3125C34.4156 8.5 34.5 8.584 34.5 8.6875V9.4375ZM29.8125 11.875H28.3125C27.5888 11.875 27 12.4637 27 13.1875V14.6875C27 15.4113 27.5888 16 28.3125 16H29.8125C30.5362 16 31.125 15.4113 31.125 14.6875V13.1875C31.125 12.4637 30.5362 11.875 29.8125 11.875ZM30.75 14.6875C30.75 15.2043 30.3293 15.625 29.8125 15.625H28.3125C27.7958 15.625 27.375 15.2043 27.375 14.6875V13.1875C27.375 12.6708 27.7958 12.25 28.3125 12.25H29.8125C30.3293 12.25 30.75 12.6708 30.75 13.1875V14.6875ZM29.4375 13H28.6875C28.3774 13 28.125 13.2524 28.125 13.5625V14.3125C28.125 14.6226 28.3774 14.875 28.6875 14.875H29.4375C29.7476 14.875 30 14.6226 30 14.3125V13.5625C30 13.2524 29.7476 13 29.4375 13ZM29.625 14.3125C29.625 14.416 29.541 14.5 29.4375 14.5H28.6875C28.584 14.5 28.5 14.416 28.5 14.3125V13.5625C28.5 13.459 28.584 13.375 28.6875 13.375H29.4375C29.541 13.375 29.625 13.459 29.625 13.5625V14.3125ZM35.4375 11.875H35.0625C34.7524 11.875 34.5 12.1274 34.5 12.4375V13H33.375V12.4375C33.375 12.1274 33.1226 11.875 32.8125 11.875H32.4375C32.1274 11.875 31.875 12.1274 31.875 12.4375V12.8125C31.875 13.1226 32.1274 13.375 32.4375 13.375H33V14.5H32.4375C32.1274 14.5 31.875 14.7524 31.875 15.0625V15.4375C31.875 15.7476 32.1274 16 32.4375 16H32.8125C33.1226 16 33.375 15.7476 33.375 15.4375V14.875H34.3125C34.6226 14.875 34.875 14.6226 34.875 14.3125V13.375H35.4375C35.7476 13.375 36 13.1226 36 12.8125V12.4375C36 12.1274 35.7476 11.875 35.4375 11.875ZM32.25 12.8125V12.4375C32.25 12.334 32.3344 12.25 32.4375 12.25H32.8125C32.9156 12.25 33 12.334 33 12.4375V13H32.4375C32.3344 13 32.25 12.916 32.25 12.8125ZM33 15.4375C33 15.541 32.9156 15.625 32.8125 15.625H32.4375C32.3344 15.625 32.25 15.541 32.25 15.4375V15.0625C32.25 14.959 32.3344 14.875 32.4375 14.875H33V15.4375ZM34.5 14.3125C34.5 14.416 34.4156 14.5 34.3125 14.5H33.375V13.375H34.5V14.3125ZM35.625 12.8125C35.625 12.916 35.5406 13 35.4375 13H34.875V12.4375C34.875 12.334 34.9594 12.25 35.0625 12.25H35.4375C35.5406 12.25 35.625 12.334 35.625 12.4375V12.8125Z" fill="#02C8ED"/>
</g>
<defs>
<linearGradient id="paint0_linear_3_27" x1="68" y1="3.5" x2="10.5" y2="55" gradientUnits="userSpaceOnUse">
<stop stop-color="#101B37"/>
<stop offset="0.282891" stop-color="#08799A"/>
<stop offset="0.51961" stop-color="#02C8ED"/>
<stop offset="0.757191" stop-color="#726FB2"/>
<stop offset="1" stop-color="#E41476"/>
</linearGradient>
<linearGradient id="paint1_linear_3_27" x1="68" y1="3.5" x2="10.5" y2="55" gradientUnits="userSpaceOnUse">
<stop stop-color="#101B37"/>
<stop offset="0.282891" stop-color="#08799A"/>
<stop offset="0.51961" stop-color="#02C8ED"/>
<stop offset="0.757191" stop-color="#726FB2"/>
<stop offset="1" stop-color="#E41476"/>
</linearGradient>
<linearGradient id="paint2_linear_3_27" x1="68" y1="3.5" x2="10.5" y2="55" gradientUnits="userSpaceOnUse">
<stop stop-color="#101B37"/>
<stop offset="0.282891" stop-color="#08799A"/>
<stop offset="0.51961" stop-color="#02C8ED"/>
<stop offset="0.757191" stop-color="#726FB2"/>
<stop offset="1" stop-color="#E41476"/>
</linearGradient>
<linearGradient id="paint3_linear_3_27" x1="68" y1="3.5" x2="10.5" y2="55" gradientUnits="userSpaceOnUse">
<stop stop-color="#101B37"/>
<stop offset="0.282891" stop-color="#08799A"/>
<stop offset="0.51961" stop-color="#02C8ED"/>
<stop offset="0.757191" stop-color="#726FB2"/>
<stop offset="1" stop-color="#E41476"/>
</linearGradient>
<linearGradient id="paint4_linear_3_27" x1="68" y1="3.5" x2="10.5" y2="55" gradientUnits="userSpaceOnUse">
<stop stop-color="#101B37"/>
<stop offset="0.282891" stop-color="#08799A"/>
<stop offset="0.51961" stop-color="#02C8ED"/>
<stop offset="0.757191" stop-color="#726FB2"/>
<stop offset="1" stop-color="#E41476"/>
</linearGradient>
<linearGradient id="paint5_linear_3_27" x1="68" y1="3.5" x2="10.5" y2="55" gradientUnits="userSpaceOnUse">
<stop stop-color="#101B37"/>
<stop offset="0.282891" stop-color="#08799A"/>
<stop offset="0.51961" stop-color="#02C8ED"/>
<stop offset="0.757191" stop-color="#726FB2"/>
<stop offset="1" stop-color="#E41476"/>
</linearGradient>
<linearGradient id="paint6_linear_3_27" x1="68" y1="3.5" x2="10.5" y2="55" gradientUnits="userSpaceOnUse">
<stop stop-color="#101B37"/>
<stop offset="0.282891" stop-color="#08799A"/>
<stop offset="0.51961" stop-color="#02C8ED"/>
<stop offset="0.757191" stop-color="#726FB2"/>
<stop offset="1" stop-color="#E41476"/>
</linearGradient>
<linearGradient id="paint7_linear_3_27" x1="68" y1="3.5" x2="10.5" y2="55" gradientUnits="userSpaceOnUse">
<stop stop-color="#101B37"/>
<stop offset="0.282891" stop-color="#08799A"/>
<stop offset="0.51961" stop-color="#02C8ED"/>
<stop offset="0.757191" stop-color="#726FB2"/>
<stop offset="1" stop-color="#E41476"/>
</linearGradient>
<linearGradient id="paint8_linear_3_27" x1="68" y1="3.5" x2="10.5" y2="55" gradientUnits="userSpaceOnUse">
<stop stop-color="#101B37"/>
<stop offset="0.282891" stop-color="#08799A"/>
<stop offset="0.51961" stop-color="#02C8ED"/>
<stop offset="0.757191" stop-color="#726FB2"/>
<stop offset="1" stop-color="#E41476"/>
</linearGradient>
<linearGradient id="paint9_linear_3_27" x1="68" y1="3.5" x2="10.5" y2="55" gradientUnits="userSpaceOnUse">
<stop stop-color="#101B37"/>
<stop offset="0.282891" stop-color="#08799A"/>
<stop offset="0.51961" stop-color="#02C8ED"/>
<stop offset="0.757191" stop-color="#726FB2"/>
<stop offset="1" stop-color="#E41476"/>
</linearGradient>
<linearGradient id="paint10_linear_3_27" x1="68" y1="3.5" x2="10.5" y2="55" gradientUnits="userSpaceOnUse">
<stop stop-color="#101B37"/>
<stop offset="0.282891" stop-color="#08799A"/>
<stop offset="0.51961" stop-color="#02C8ED"/>
<stop offset="0.757191" stop-color="#726FB2"/>
<stop offset="1" stop-color="#E41476"/>
</linearGradient>
<clipPath id="clip0_3_27">
<rect width="10" height="10" fill="white" transform="translate(71 18)"/>
</clipPath>
<clipPath id="clip1_3_27">
<rect width="9" height="9" fill="white" transform="translate(27 7)"/>
</clipPath>
</defs>
</svg>
