<svg width="318" height="346" viewBox="0 0 318 346" fill="none" xmlns="http://www.w3.org/2000/svg">
<mask id="path-1-inside-1_175_165" fill="white">
<path d="M318 165.799C318 145.934 301.782 129.759 281.864 129.759H245.727V86.5108H213.566L222.412 77.6882C230.868 69.2548 230.868 55.5307 222.412 47.0973L181.52 6.32865C173.324 -1.84526 159.029 -1.83084 150.862 6.32865L130.062 27.0734V21.6241C130.062 9.70201 120.334 0 108.38 0H50.562C38.6081 0 28.8802 9.70201 28.8802 21.6241V79.2884C28.8802 81.84 29.4005 84.2475 30.21 86.5108H0V309.96C0 329.825 16.218 346 36.1364 346H209.591C229.509 346 245.727 329.825 245.727 309.96V273.92H318V165.799ZM161.096 16.5208C163.813 13.7962 168.569 13.8106 171.315 16.5208L212.207 57.3039C215.026 60.115 215.026 64.6849 212.207 67.5104L193.142 86.5252H139.27L120.204 67.5104C117.385 64.6993 117.385 60.115 120.204 57.3039L161.096 16.5208ZM43.3203 79.2884V21.6241C43.3203 17.6453 46.5581 14.4161 50.5475 14.4161H108.366C112.355 14.4161 115.593 17.6453 115.593 21.6241V41.4894L109.956 47.1117C101.514 55.5451 101.514 69.2692 109.956 77.7026L118.802 86.5252H50.5331C46.5436 86.5252 43.3058 83.2816 43.3058 79.3028L43.3203 79.2884ZM231.258 309.96C231.258 321.882 221.53 331.584 209.576 331.584H36.1364C24.1825 331.584 14.4545 321.882 14.4545 309.96V100.927H231.273V309.96H231.258ZM303.531 259.504H245.713V144.175H281.849C293.803 144.175 303.531 153.877 303.531 165.799V259.504Z"/>
<path d="M189.684 223.226C189.684 260.211 159.711 290.194 122.737 290.194C85.7628 290.194 55.7895 260.211 55.7895 223.226C55.7895 186.241 85.7628 156.258 122.737 156.258C159.711 156.258 189.684 186.241 189.684 223.226Z"/>
<path d="M166.387 271.666C164.958 274.88 161.834 278.72 157.014 283.184C152.372 287.649 146.838 291.578 140.411 294.971C134.163 298.185 127.825 299.792 121.398 299.792C112.115 299.792 105.866 297.114 102.653 291.756C99.4392 286.22 97.8324 278.809 97.8324 269.523C97.8324 263.272 98.368 255.594 99.4392 246.486C100.51 237.378 102.117 227.556 104.259 217.02C106.402 206.484 109.08 195.858 112.293 185.143C115.507 174.964 118.988 165.053 122.737 155.41C126.486 145.766 132.109 137.373 139.608 130.23C140.857 128.266 142.464 127.283 144.428 127.283C146.035 127.283 147.463 127.998 148.712 129.426C149.962 130.676 150.498 132.194 150.319 133.98C150.319 133.98 150.23 136.212 150.051 140.677C150.051 145.141 149.784 150.588 149.248 157.017C148.712 163.267 147.909 169.25 146.838 174.964C145.231 184.608 142.285 194.787 138.001 205.502C133.895 216.217 129.521 225.949 124.879 234.7C121.13 242.021 118.095 247.29 115.774 250.504C113.632 253.718 111.936 256.04 110.686 257.469C109.615 258.897 108.812 260.772 108.276 263.094C108.098 264.344 107.919 265.773 107.741 267.38C107.741 268.809 107.741 270.326 107.741 271.934C107.741 275.148 107.919 278.273 108.276 281.309C108.812 284.166 109.437 286.042 110.151 286.934C112.115 288.899 114.257 290.327 116.578 291.22C118.899 292.113 121.219 292.56 123.54 292.56C125.504 292.56 127.289 292.292 128.896 291.756C134.966 289.97 141.125 287.024 147.373 282.916C153.8 278.809 158.353 274.791 161.031 270.862C162.28 269.076 163.262 267.916 163.976 267.38C164.869 266.666 165.583 266.308 166.119 266.308C167.011 266.308 167.458 266.933 167.458 268.183C167.458 268.541 167.368 269.076 167.19 269.791C167.011 270.326 166.744 270.951 166.387 271.666ZM142.018 145.231C140.232 144.874 137.376 148.802 133.448 157.017C129.699 165.232 125.772 176.393 121.666 190.501C120.416 194.787 118.988 200.234 117.381 206.841C115.953 213.449 114.525 220.324 113.096 227.467C111.668 234.432 110.597 240.771 109.883 246.486C115.596 234.878 120.773 224.431 125.415 215.145C130.056 205.859 133.627 197.198 136.126 189.162C138.447 182.733 140.143 175.857 141.214 168.535C142.464 161.214 143.089 155.41 143.089 151.124C143.089 147.731 142.732 145.766 142.018 145.231Z"/>
</mask>
<path d="M318 165.799C318 145.934 301.782 129.759 281.864 129.759H245.727V86.5108H213.566L222.412 77.6882C230.868 69.2548 230.868 55.5307 222.412 47.0973L181.52 6.32865C173.324 -1.84526 159.029 -1.83084 150.862 6.32865L130.062 27.0734V21.6241C130.062 9.70201 120.334 0 108.38 0H50.562C38.6081 0 28.8802 9.70201 28.8802 21.6241V79.2884C28.8802 81.84 29.4005 84.2475 30.21 86.5108H0V309.96C0 329.825 16.218 346 36.1364 346H209.591C229.509 346 245.727 329.825 245.727 309.96V273.92H318V165.799ZM161.096 16.5208C163.813 13.7962 168.569 13.8106 171.315 16.5208L212.207 57.3039C215.026 60.115 215.026 64.6849 212.207 67.5104L193.142 86.5252H139.27L120.204 67.5104C117.385 64.6993 117.385 60.115 120.204 57.3039L161.096 16.5208ZM43.3203 79.2884V21.6241C43.3203 17.6453 46.5581 14.4161 50.5475 14.4161H108.366C112.355 14.4161 115.593 17.6453 115.593 21.6241V41.4894L109.956 47.1117C101.514 55.5451 101.514 69.2692 109.956 77.7026L118.802 86.5252H50.5331C46.5436 86.5252 43.3058 83.2816 43.3058 79.3028L43.3203 79.2884ZM231.258 309.96C231.258 321.882 221.53 331.584 209.576 331.584H36.1364C24.1825 331.584 14.4545 321.882 14.4545 309.96V100.927H231.273V309.96H231.258ZM303.531 259.504H245.713V144.175H281.849C293.803 144.175 303.531 153.877 303.531 165.799V259.504Z" fill="#97D5B1"/>
<path d="M189.684 223.226C189.684 260.211 159.711 290.194 122.737 290.194C85.7628 290.194 55.7895 260.211 55.7895 223.226C55.7895 186.241 85.7628 156.258 122.737 156.258C159.711 156.258 189.684 186.241 189.684 223.226Z" fill="#97CEFA" fill-opacity="0.73"/>
<path d="M166.387 271.666C164.958 274.88 161.834 278.72 157.014 283.184C152.372 287.649 146.838 291.578 140.411 294.971C134.163 298.185 127.825 299.792 121.398 299.792C112.115 299.792 105.866 297.114 102.653 291.756C99.4392 286.22 97.8324 278.809 97.8324 269.523C97.8324 263.272 98.368 255.594 99.4392 246.486C100.51 237.378 102.117 227.556 104.259 217.02C106.402 206.484 109.08 195.858 112.293 185.143C115.507 174.964 118.988 165.053 122.737 155.41C126.486 145.766 132.109 137.373 139.608 130.23C140.857 128.266 142.464 127.283 144.428 127.283C146.035 127.283 147.463 127.998 148.712 129.426C149.962 130.676 150.498 132.194 150.319 133.98C150.319 133.98 150.23 136.212 150.051 140.677C150.051 145.141 149.784 150.588 149.248 157.017C148.712 163.267 147.909 169.25 146.838 174.964C145.231 184.608 142.285 194.787 138.001 205.502C133.895 216.217 129.521 225.949 124.879 234.7C121.13 242.021 118.095 247.29 115.774 250.504C113.632 253.718 111.936 256.04 110.686 257.469C109.615 258.897 108.812 260.772 108.276 263.094C108.098 264.344 107.919 265.773 107.741 267.38C107.741 268.809 107.741 270.326 107.741 271.934C107.741 275.148 107.919 278.273 108.276 281.309C108.812 284.166 109.437 286.042 110.151 286.934C112.115 288.899 114.257 290.327 116.578 291.22C118.899 292.113 121.219 292.56 123.54 292.56C125.504 292.56 127.289 292.292 128.896 291.756C134.966 289.97 141.125 287.024 147.373 282.916C153.8 278.809 158.353 274.791 161.031 270.862C162.28 269.076 163.262 267.916 163.976 267.38C164.869 266.666 165.583 266.308 166.119 266.308C167.011 266.308 167.458 266.933 167.458 268.183C167.458 268.541 167.368 269.076 167.19 269.791C167.011 270.326 166.744 270.951 166.387 271.666ZM142.018 145.231C140.232 144.874 137.376 148.802 133.448 157.017C129.699 165.232 125.772 176.393 121.666 190.501C120.416 194.787 118.988 200.234 117.381 206.841C115.953 213.449 114.525 220.324 113.096 227.467C111.668 234.432 110.597 240.771 109.883 246.486C115.596 234.878 120.773 224.431 125.415 215.145C130.056 205.859 133.627 197.198 136.126 189.162C138.447 182.733 140.143 175.857 141.214 168.535C142.464 161.214 143.089 155.41 143.089 151.124C143.089 147.731 142.732 145.766 142.018 145.231Z" fill="black"/>
<path d="M193.142 86.5752L213.566 86.5608L213.566 86.4608L193.142 86.4752L193.142 86.5752ZM245.727 129.759H245.627V129.859H245.727V129.759ZM245.727 86.5108H245.827V86.4108H245.727V86.5108ZM213.566 86.5108L213.495 86.44L213.324 86.6108H213.566V86.5108ZM222.412 77.6882L222.341 77.6174L222.412 77.6882ZM222.412 47.0973L222.483 47.0265L222.483 47.0265L222.412 47.0973ZM181.52 6.32865L181.45 6.39946L181.45 6.39947L181.52 6.32865ZM150.862 6.32865L150.933 6.39946L150.933 6.39939L150.862 6.32865ZM130.062 27.0734H129.962V27.3143L130.133 27.1442L130.062 27.0734ZM30.21 86.5108V86.6108H30.352L30.3042 86.4771L30.21 86.5108ZM0 86.5108V86.4108H-0.1V86.5108H0ZM245.727 273.92V273.82H245.627V273.92H245.727ZM318 273.92V274.02H318.1V273.92H318ZM161.096 16.5208L161.167 16.5916L161.167 16.5914L161.096 16.5208ZM171.315 16.5208L171.386 16.45L171.386 16.4496L171.315 16.5208ZM212.207 57.3039L212.278 57.2331L212.207 57.3039ZM212.207 67.5104L212.278 67.5812L212.278 67.5811L212.207 67.5104ZM193.142 86.5252V86.6252H193.183L193.212 86.596L193.142 86.5252ZM139.27 86.5252L139.199 86.596L139.228 86.6252H139.27V86.5252ZM120.204 67.5104L120.133 67.5812L120.204 67.5104ZM120.204 57.3039L120.133 57.2331L120.204 57.3039ZM43.3203 79.2884L43.3909 79.3592L43.4203 79.3299V79.2884H43.3203ZM115.593 41.4894L115.664 41.5602L115.693 41.5309V41.4894H115.593ZM109.956 47.1117L109.885 47.0409L109.885 47.041L109.956 47.1117ZM109.956 77.7026L109.885 77.7733L109.885 77.7734L109.956 77.7026ZM118.802 86.5252V86.6252H119.044L118.873 86.4544L118.802 86.5252ZM43.3058 79.3028L43.2352 79.2319L43.2058 79.2613V79.3028H43.3058ZM231.258 309.96V309.86H231.158V309.96H231.258ZM14.4545 100.927V100.827H14.3545V100.927H14.4545ZM231.273 100.927H231.373V100.827H231.273V100.927ZM231.273 309.96V310.06H231.373V309.96H231.273ZM303.531 259.504V259.604H303.631V259.504H303.531ZM245.713 259.504H245.613V259.604H245.713V259.504ZM245.713 144.175V144.075H245.613V144.175H245.713ZM166.387 271.666L166.297 271.621L166.295 271.625L166.387 271.666ZM157.014 283.184L156.946 283.111L156.945 283.112L157.014 283.184ZM140.411 294.971L140.457 295.06L140.458 295.059L140.411 294.971ZM102.653 291.756L102.566 291.806L102.567 291.808L102.653 291.756ZM99.4392 246.486L99.3399 246.474L99.4392 246.486ZM104.259 217.02L104.357 217.04L104.259 217.02ZM112.293 185.143L112.198 185.113L112.197 185.115L112.293 185.143ZM122.737 155.41L122.644 155.374L122.737 155.41ZM139.608 130.23L139.677 130.302L139.685 130.294L139.692 130.284L139.608 130.23ZM148.712 129.426L148.637 129.492L148.642 129.497L148.712 129.426ZM150.319 133.98L150.219 133.97L150.219 133.976L150.319 133.98ZM150.051 140.677L149.951 140.673V140.677H150.051ZM149.248 157.017L149.348 157.026L149.348 157.025L149.248 157.017ZM146.838 174.964L146.74 174.946L146.739 174.948L146.838 174.964ZM138.001 205.502L137.908 205.465L137.907 205.466L138.001 205.502ZM124.879 234.7L124.791 234.653L124.79 234.654L124.879 234.7ZM115.774 250.504L115.693 250.445L115.691 250.449L115.774 250.504ZM110.686 257.469L110.611 257.403L110.606 257.409L110.686 257.469ZM108.276 263.094L108.178 263.071L108.177 263.08L108.276 263.094ZM107.741 267.38L107.641 267.369V267.38H107.741ZM108.276 281.309L108.177 281.321L108.178 281.328L108.276 281.309ZM110.151 286.934L110.072 286.997L110.08 287.005L110.151 286.934ZM116.578 291.22L116.614 291.127L116.578 291.22ZM128.896 291.756L128.868 291.66L128.864 291.661L128.896 291.756ZM147.373 282.916L147.32 282.832L147.319 282.833L147.373 282.916ZM161.031 270.862L160.949 270.805L160.948 270.806L161.031 270.862ZM163.976 267.38L164.036 267.46L164.039 267.458L163.976 267.38ZM167.19 269.791L167.285 269.822L167.287 269.815L167.19 269.791ZM142.018 145.231L142.078 145.151L142.06 145.137L142.037 145.133L142.018 145.231ZM133.448 157.017L133.358 156.974L133.357 156.975L133.448 157.017ZM121.666 190.501L121.762 190.529L121.762 190.529L121.666 190.501ZM117.381 206.841L117.284 206.817L117.283 206.82L117.381 206.841ZM113.096 227.467L113.194 227.487L113.194 227.487L113.096 227.467ZM109.883 246.486L109.784 246.474L109.973 246.53L109.883 246.486ZM125.415 215.145L125.325 215.1L125.415 215.145ZM136.126 189.162L136.032 189.128L136.031 189.132L136.126 189.162ZM141.214 168.535L141.116 168.519L141.115 168.521L141.214 168.535ZM318.1 165.799C318.1 145.878 301.837 129.659 281.864 129.659V129.859C301.727 129.859 317.9 145.989 317.9 165.799H318.1ZM281.864 129.659H245.727V129.859H281.864V129.659ZM245.827 129.759V86.5108H245.627V129.759H245.827ZM245.727 86.4108H213.566V86.6108H245.727V86.4108ZM213.637 86.5816L222.483 77.759L222.341 77.6174L213.495 86.44L213.637 86.5816ZM222.483 77.759C230.978 69.2865 230.978 55.499 222.483 47.0265L222.341 47.1681C230.758 55.5624 230.758 69.2231 222.341 77.6174L222.483 77.759ZM222.483 47.0265L181.591 6.25784L181.45 6.39947L222.341 47.1681L222.483 47.0265ZM181.591 6.25785C173.356 -1.955 158.997 -1.94058 150.791 6.25791L150.933 6.39939C159.061 -1.7211 173.293 -1.73552 181.45 6.39946L181.591 6.25785ZM150.791 6.25785L129.991 27.0026L130.133 27.1442L150.933 6.39946L150.791 6.25785ZM130.162 27.0734V21.6241H129.962V27.0734H130.162ZM130.162 21.6241C130.162 9.64653 120.389 -0.1 108.38 -0.1V0.1C120.279 0.1 129.962 9.75749 129.962 21.6241H130.162ZM108.38 -0.1H50.562V0.1H108.38V-0.1ZM50.562 -0.1C38.5531 -0.1 28.7802 9.64653 28.7802 21.6241H28.9802C28.9802 9.75749 38.6631 0.1 50.562 0.1V-0.1ZM28.7802 21.6241V79.2884H28.9802V21.6241H28.7802ZM28.7802 79.2884C28.7802 81.8538 29.3034 84.2728 30.1158 86.5445L30.3042 86.4771C29.4977 84.2222 28.9802 81.8262 28.9802 79.2884H28.7802ZM30.21 86.4108H0V86.6108H30.21V86.4108ZM-0.1 86.5108V309.96H0.1V86.5108H-0.1ZM-0.1 309.96C-0.1 329.881 16.163 346.1 36.1364 346.1V345.9C16.273 345.9 0.1 329.77 0.1 309.96H-0.1ZM36.1364 346.1H209.591V345.9H36.1364V346.1ZM209.591 346.1C229.564 346.1 245.827 329.881 245.827 309.96H245.627C245.627 329.77 229.454 345.9 209.591 345.9V346.1ZM245.827 309.96V273.92H245.627V309.96H245.827ZM245.727 274.02H318V273.82H245.727V274.02ZM318.1 273.92V165.799H317.9V273.92H318.1ZM161.167 16.5914C163.845 13.9064 168.537 13.9198 171.245 16.592L171.386 16.4496C168.601 13.7014 163.782 13.6859 161.025 16.4502L161.167 16.5914ZM171.245 16.5916L212.137 57.3747L212.278 57.2331L171.386 16.45L171.245 16.5916ZM212.137 57.3747C214.916 60.1466 214.916 64.6532 212.136 67.4398L212.278 67.5811C215.135 64.7166 215.136 60.0834 212.278 57.2331L212.137 57.3747ZM212.137 67.4396L193.071 86.4544L193.212 86.596L212.278 67.5812L212.137 67.4396ZM193.142 86.4252H139.27V86.6252H193.142V86.4252ZM139.34 86.4544L120.275 67.4396L120.133 67.5812L139.199 86.596L139.34 86.4544ZM120.275 67.4396C117.495 64.6676 117.495 60.1467 120.275 57.3747L120.133 57.2331C117.276 60.0833 117.276 64.731 120.133 67.5812L120.275 67.4396ZM120.275 57.3747L161.167 16.5916L161.025 16.45L120.133 57.2331L120.275 57.3747ZM43.4203 79.2884V21.6241H43.2203V79.2884H43.4203ZM43.4203 21.6241C43.4203 17.7007 46.6131 14.5161 50.5475 14.5161V14.3161C46.5031 14.3161 43.2203 17.5898 43.2203 21.6241H43.4203ZM50.5475 14.5161H108.366V14.3161H50.5475V14.5161ZM108.366 14.5161C112.3 14.5161 115.493 17.7007 115.493 21.6241H115.693C115.693 17.5898 112.41 14.3161 108.366 14.3161V14.5161ZM115.493 21.6241V41.4894H115.693V21.6241H115.493ZM115.522 41.4186L109.885 47.0409L110.026 47.1825L115.664 41.5602L115.522 41.4186ZM109.885 47.041C101.405 55.5134 101.405 69.3009 109.885 77.7733L110.026 77.6318C101.624 69.2375 101.624 55.5768 110.026 47.1825L109.885 47.041ZM109.885 77.7734L118.731 86.596L118.873 86.4544L110.026 77.6318L109.885 77.7734ZM118.802 86.4252H50.5331V86.6252H118.802V86.4252ZM50.5331 86.4252C46.5989 86.4252 43.4058 83.2264 43.4058 79.3028H43.2058C43.2058 83.3368 46.4884 86.6252 50.5331 86.6252V86.4252ZM43.3764 79.3736L43.3909 79.3592L43.2497 79.2175L43.2352 79.2319L43.3764 79.3736ZM231.158 309.96C231.158 321.826 221.475 331.484 209.576 331.484V331.684C221.585 331.684 231.358 321.937 231.358 309.96H231.158ZM209.576 331.484H36.1364V331.684H209.576V331.484ZM36.1364 331.484C24.2374 331.484 14.5545 321.826 14.5545 309.96H14.3545C14.3545 321.937 24.1275 331.684 36.1364 331.684V331.484ZM14.5545 309.96V100.927H14.3545V309.96H14.5545ZM14.4545 101.027H231.273V100.827H14.4545V101.027ZM231.173 100.927V309.96H231.373V100.927H231.173ZM231.273 309.86H231.258V310.06H231.273V309.86ZM303.531 259.404H245.713V259.604H303.531V259.404ZM245.813 259.504V144.175H245.613V259.504H245.813ZM245.713 144.275H281.849V144.075H245.713V144.275ZM281.849 144.275C293.748 144.275 303.431 153.933 303.431 165.799H303.631C303.631 153.822 293.858 144.075 281.849 144.075V144.275ZM303.431 165.799V259.504H303.631V165.799H303.431ZM189.584 223.226C189.584 260.156 159.656 290.094 122.737 290.094V290.294C159.766 290.294 189.784 260.266 189.784 223.226H189.584ZM122.737 290.094C85.8181 290.094 55.8895 260.156 55.8895 223.226H55.6895C55.6895 260.266 85.7076 290.294 122.737 290.294V290.094ZM55.8895 223.226C55.8895 186.296 85.8181 156.358 122.737 156.358V156.158C85.7076 156.158 55.6895 186.185 55.6895 223.226H55.8895ZM122.737 156.358C159.656 156.358 189.584 186.296 189.584 223.226H189.784C189.784 186.185 159.766 156.158 122.737 156.158V156.358ZM166.295 271.625C164.875 274.821 161.763 278.649 156.946 283.111L157.082 283.258C161.905 278.79 165.041 274.94 166.478 271.706L166.295 271.625ZM156.945 283.112C152.31 287.569 146.784 291.493 140.364 294.882L140.458 295.059C146.892 291.662 152.434 287.728 157.083 283.256L156.945 283.112ZM140.365 294.882C134.13 298.09 127.807 299.692 121.398 299.692V299.892C127.842 299.892 134.195 298.281 140.457 295.06L140.365 294.882ZM121.398 299.692C112.131 299.692 105.926 297.019 102.738 291.705L102.567 291.808C105.806 297.208 112.098 299.892 121.398 299.892V299.692ZM102.739 291.706C99.5376 286.191 97.9324 278.799 97.9324 269.523H97.7324C97.7324 278.819 99.3407 286.25 102.566 291.806L102.739 291.706ZM97.9324 269.523C97.9324 263.278 98.4676 255.603 99.5385 246.498L99.3399 246.474C98.2684 255.584 97.7324 263.267 97.7324 269.523H97.9324ZM99.5385 246.498C100.609 237.393 102.216 227.574 104.357 217.04L104.161 217C102.019 227.539 100.411 237.363 99.3399 246.474L99.5385 246.498ZM104.357 217.04C106.499 206.507 109.176 195.884 112.389 185.172L112.197 185.115C108.983 195.832 106.304 206.461 104.161 217L104.357 217.04ZM112.388 185.174C115.601 174.996 119.082 165.087 122.83 155.446L122.644 155.374C118.894 165.019 115.412 174.932 112.198 185.113L112.388 185.174ZM122.83 155.446C126.574 145.816 132.189 137.435 139.677 130.302L139.539 130.158C132.03 137.311 126.398 145.716 122.644 155.374L122.83 155.446ZM139.692 130.284C140.927 128.342 142.505 127.383 144.428 127.383V127.183C142.423 127.183 140.787 128.189 139.523 130.176L139.692 130.284ZM144.428 127.383C146 127.383 147.403 128.081 148.637 129.492L148.788 129.36C147.523 127.914 146.069 127.183 144.428 127.183V127.383ZM148.642 129.497C149.87 130.725 150.395 132.214 150.22 133.97L150.419 133.99C150.6 132.175 150.054 130.627 148.783 129.356L148.642 129.497ZM150.319 133.98C150.219 133.976 150.219 133.976 150.219 133.976C150.219 133.976 150.219 133.976 150.219 133.976C150.219 133.976 150.219 133.976 150.219 133.977C150.219 133.977 150.219 133.977 150.219 133.978C150.219 133.979 150.219 133.98 150.219 133.983C150.219 133.987 150.219 133.994 150.218 134.002C150.217 134.02 150.216 134.046 150.215 134.081C150.212 134.15 150.208 134.255 150.202 134.395C150.191 134.674 150.175 135.092 150.152 135.65C150.108 136.766 150.041 138.441 149.951 140.673L150.151 140.681C150.241 138.449 150.308 136.774 150.352 135.658C150.374 135.1 150.391 134.682 150.402 134.403C150.408 134.263 150.412 134.158 150.415 134.089C150.416 134.054 150.417 134.028 150.418 134.01C150.418 134.002 150.419 133.995 150.419 133.991C150.419 133.988 150.419 133.987 150.419 133.986C150.419 133.985 150.419 133.985 150.419 133.985C150.419 133.984 150.419 133.984 150.419 133.984C150.419 133.984 150.419 133.984 150.419 133.984C150.419 133.984 150.419 133.984 150.319 133.98ZM149.951 140.677C149.951 145.138 149.684 150.581 149.148 157.009L149.348 157.025C149.883 150.595 150.151 145.145 150.151 140.677H149.951ZM149.148 157.008C148.613 163.256 147.81 169.235 146.74 174.946L146.936 174.983C148.008 169.265 148.812 163.279 149.348 157.026L149.148 157.008ZM146.739 174.948C145.134 184.583 142.19 194.755 137.908 205.465L138.094 205.539C142.381 194.818 145.328 184.632 146.937 174.981L146.739 174.948ZM137.907 205.466C133.803 216.178 129.43 225.906 124.791 234.653L124.967 234.746C129.611 225.992 133.987 216.255 138.094 205.537L137.907 205.466ZM124.79 234.654C121.041 241.975 118.009 247.238 115.693 250.445L115.855 250.563C118.181 247.342 121.219 242.068 124.968 234.745L124.79 234.654ZM115.691 250.449C113.549 253.662 111.856 255.979 110.611 257.403L110.762 257.534C112.016 256.101 113.715 253.775 115.858 250.559L115.691 250.449ZM110.606 257.409C109.524 258.852 108.716 260.741 108.179 263.071L108.374 263.116C108.907 260.804 109.706 258.943 110.766 257.529L110.606 257.409ZM108.177 263.08C107.999 264.331 107.82 265.761 107.641 267.369L107.84 267.391C108.018 265.784 108.197 264.357 108.375 263.108L108.177 263.08ZM107.641 267.38C107.641 267.383 107.641 267.385 107.641 267.388C107.641 267.391 107.641 267.394 107.641 267.397C107.641 267.399 107.641 267.402 107.641 267.405C107.641 267.408 107.641 267.411 107.641 267.413C107.641 267.416 107.641 267.419 107.641 267.422C107.641 267.425 107.641 267.427 107.641 267.43C107.641 267.433 107.641 267.436 107.641 267.439C107.641 267.441 107.641 267.444 107.641 267.447C107.641 267.45 107.641 267.452 107.641 267.455C107.641 267.458 107.641 267.461 107.641 267.464C107.641 267.466 107.641 267.469 107.641 267.472C107.641 267.475 107.641 267.478 107.641 267.48C107.641 267.483 107.641 267.486 107.641 267.489C107.641 267.492 107.641 267.494 107.641 267.497C107.641 267.5 107.641 267.503 107.641 267.506C107.641 267.508 107.641 267.511 107.641 267.514C107.641 267.517 107.641 267.52 107.641 267.522C107.641 267.525 107.641 267.528 107.641 267.531C107.641 267.534 107.641 267.536 107.641 267.539C107.641 267.542 107.641 267.545 107.641 267.548C107.641 267.551 107.641 267.553 107.641 267.556C107.641 267.559 107.641 267.562 107.641 267.565C107.641 267.567 107.641 267.57 107.641 267.573C107.641 267.576 107.641 267.579 107.641 267.581C107.641 267.584 107.641 267.587 107.641 267.59C107.641 267.593 107.641 267.595 107.641 267.598C107.641 267.601 107.641 267.604 107.641 267.607C107.641 267.609 107.641 267.612 107.641 267.615C107.641 267.618 107.641 267.621 107.641 267.623C107.641 267.626 107.641 267.629 107.641 267.632C107.641 267.635 107.641 267.638 107.641 267.64C107.641 267.643 107.641 267.646 107.641 267.649C107.641 267.652 107.641 267.654 107.641 267.657C107.641 267.66 107.641 267.663 107.641 267.666C107.641 267.668 107.641 267.671 107.641 267.674C107.641 267.677 107.641 267.68 107.641 267.683C107.641 267.685 107.641 267.688 107.641 267.691C107.641 267.694 107.641 267.697 107.641 267.699C107.641 267.702 107.641 267.705 107.641 267.708C107.641 267.711 107.641 267.714 107.641 267.716C107.641 267.719 107.641 267.722 107.641 267.725C107.641 267.728 107.641 267.73 107.641 267.733C107.641 267.736 107.641 267.739 107.641 267.742C107.641 267.745 107.641 267.747 107.641 267.75C107.641 267.753 107.641 267.756 107.641 267.759C107.641 267.761 107.641 267.764 107.641 267.767C107.641 267.77 107.641 267.773 107.641 267.776C107.641 267.778 107.641 267.781 107.641 267.784C107.641 267.787 107.641 267.79 107.641 267.792C107.641 267.795 107.641 267.798 107.641 267.801C107.641 267.804 107.641 267.807 107.641 267.809C107.641 267.812 107.641 267.815 107.641 267.818C107.641 267.821 107.641 267.824 107.641 267.826C107.641 267.829 107.641 267.832 107.641 267.835C107.641 267.838 107.641 267.841 107.641 267.843C107.641 267.846 107.641 267.849 107.641 267.852C107.641 267.855 107.641 267.857 107.641 267.86C107.641 267.863 107.641 267.866 107.641 267.869C107.641 267.872 107.641 267.874 107.641 267.877C107.641 267.88 107.641 267.883 107.641 267.886C107.641 267.889 107.641 267.891 107.641 267.894C107.641 267.897 107.641 267.9 107.641 267.903C107.641 267.906 107.641 267.908 107.641 267.911C107.641 267.914 107.641 267.917 107.641 267.92C107.641 267.923 107.641 267.925 107.641 267.928C107.641 267.931 107.641 267.934 107.641 267.937C107.641 267.94 107.641 267.942 107.641 267.945C107.641 267.948 107.641 267.951 107.641 267.954C107.641 267.957 107.641 267.959 107.641 267.962C107.641 267.965 107.641 267.968 107.641 267.971C107.641 267.974 107.641 267.977 107.641 267.979C107.641 267.982 107.641 267.985 107.641 267.988C107.641 267.991 107.641 267.994 107.641 267.996C107.641 267.999 107.641 268.002 107.641 268.005C107.641 268.008 107.641 268.011 107.641 268.013C107.641 268.016 107.641 268.019 107.641 268.022C107.641 268.025 107.641 268.028 107.641 268.03C107.641 268.033 107.641 268.036 107.641 268.039C107.641 268.042 107.641 268.045 107.641 268.048C107.641 268.05 107.641 268.053 107.641 268.056C107.641 268.059 107.641 268.062 107.641 268.065C107.641 268.067 107.641 268.07 107.641 268.073C107.641 268.076 107.641 268.079 107.641 268.082C107.641 268.085 107.641 268.087 107.641 268.09C107.641 268.093 107.641 268.096 107.641 268.099C107.641 268.102 107.641 268.104 107.641 268.107C107.641 268.11 107.641 268.113 107.641 268.116C107.641 268.119 107.641 268.122 107.641 268.124C107.641 268.127 107.641 268.13 107.641 268.133C107.641 268.136 107.641 268.139 107.641 268.142C107.641 268.144 107.641 268.147 107.641 268.15C107.641 268.153 107.641 268.156 107.641 268.159C107.641 268.161 107.641 268.164 107.641 268.167C107.641 268.17 107.641 268.173 107.641 268.176C107.641 268.179 107.641 268.181 107.641 268.184C107.641 268.187 107.641 268.19 107.641 268.193C107.641 268.196 107.641 268.199 107.641 268.201C107.641 268.204 107.641 268.207 107.641 268.21C107.641 268.213 107.641 268.216 107.641 268.219C107.641 268.221 107.641 268.224 107.641 268.227C107.641 268.23 107.641 268.233 107.641 268.236C107.641 268.239 107.641 268.241 107.641 268.244C107.641 268.247 107.641 268.25 107.641 268.253C107.641 268.256 107.641 268.259 107.641 268.262C107.641 268.264 107.641 268.267 107.641 268.27C107.641 268.273 107.641 268.276 107.641 268.279C107.641 268.282 107.641 268.284 107.641 268.287C107.641 268.29 107.641 268.293 107.641 268.296C107.641 268.299 107.641 268.302 107.641 268.304C107.641 268.307 107.641 268.31 107.641 268.313C107.641 268.316 107.641 268.319 107.641 268.322C107.641 268.324 107.641 268.327 107.641 268.33C107.641 268.333 107.641 268.336 107.641 268.339C107.641 268.342 107.641 268.345 107.641 268.347C107.641 268.35 107.641 268.353 107.641 268.356C107.641 268.359 107.641 268.362 107.641 268.365C107.641 268.368 107.641 268.37 107.641 268.373C107.641 268.376 107.641 268.379 107.641 268.382C107.641 268.385 107.641 268.388 107.641 268.39C107.641 268.393 107.641 268.396 107.641 268.399C107.641 268.402 107.641 268.405 107.641 268.408C107.641 268.411 107.641 268.413 107.641 268.416C107.641 268.419 107.641 268.422 107.641 268.425C107.641 268.428 107.641 268.431 107.641 268.434C107.641 268.436 107.641 268.439 107.641 268.442C107.641 268.445 107.641 268.448 107.641 268.451C107.641 268.454 107.641 268.457 107.641 268.459C107.641 268.462 107.641 268.465 107.641 268.468C107.641 268.471 107.641 268.474 107.641 268.477C107.641 268.48 107.641 268.482 107.641 268.485C107.641 268.488 107.641 268.491 107.641 268.494C107.641 268.497 107.641 268.5 107.641 268.503C107.641 268.506 107.641 268.508 107.641 268.511C107.641 268.514 107.641 268.517 107.641 268.52C107.641 268.523 107.641 268.526 107.641 268.529C107.641 268.531 107.641 268.534 107.641 268.537C107.641 268.54 107.641 268.543 107.641 268.546C107.641 268.549 107.641 268.552 107.641 268.555C107.641 268.557 107.641 268.56 107.641 268.563C107.641 268.566 107.641 268.569 107.641 268.572C107.641 268.575 107.641 268.578 107.641 268.58C107.641 268.583 107.641 268.586 107.641 268.589C107.641 268.592 107.641 268.595 107.641 268.598C107.641 268.601 107.641 268.604 107.641 268.606C107.641 268.609 107.641 268.612 107.641 268.615C107.641 268.618 107.641 268.621 107.641 268.624C107.641 268.627 107.641 268.63 107.641 268.632C107.641 268.635 107.641 268.638 107.641 268.641C107.641 268.644 107.641 268.647 107.641 268.65C107.641 268.653 107.641 268.656 107.641 268.659C107.641 268.661 107.641 268.664 107.641 268.667C107.641 268.67 107.641 268.673 107.641 268.676C107.641 268.679 107.641 268.682 107.641 268.685C107.641 268.687 107.641 268.69 107.641 268.693C107.641 268.696 107.641 268.699 107.641 268.702C107.641 268.705 107.641 268.708 107.641 268.711C107.641 268.714 107.641 268.716 107.641 268.719C107.641 268.722 107.641 268.725 107.641 268.728C107.641 268.731 107.641 268.734 107.641 268.737C107.641 268.74 107.641 268.742 107.641 268.745C107.641 268.748 107.641 268.751 107.641 268.754C107.641 268.757 107.641 268.76 107.641 268.763C107.641 268.766 107.641 268.769 107.641 268.771C107.641 268.774 107.641 268.777 107.641 268.78C107.641 268.783 107.641 268.786 107.641 268.789C107.641 268.792 107.641 268.795 107.641 268.798C107.641 268.801 107.641 268.803 107.641 268.806C107.641 268.809 107.641 268.812 107.641 268.815C107.641 268.818 107.641 268.821 107.641 268.824C107.641 268.827 107.641 268.83 107.641 268.832C107.641 268.835 107.641 268.838 107.641 268.841C107.641 268.844 107.641 268.847 107.641 268.85C107.641 268.853 107.641 268.856 107.641 268.859C107.641 268.862 107.641 268.864 107.641 268.867C107.641 268.87 107.641 268.873 107.641 268.876C107.641 268.879 107.641 268.882 107.641 268.885C107.641 268.888 107.641 268.891 107.641 268.894C107.641 268.896 107.641 268.899 107.641 268.902C107.641 268.905 107.641 268.908 107.641 268.911C107.641 268.914 107.641 268.917 107.641 268.92C107.641 268.923 107.641 268.926 107.641 268.928C107.641 268.931 107.641 268.934 107.641 268.937C107.641 268.94 107.641 268.943 107.641 268.946C107.641 268.949 107.641 268.952 107.641 268.955C107.641 268.958 107.641 268.961 107.641 268.963C107.641 268.966 107.641 268.969 107.641 268.972C107.641 268.975 107.641 268.978 107.641 268.981C107.641 268.984 107.641 268.987 107.641 268.99C107.641 268.993 107.641 268.996 107.641 268.998C107.641 269.001 107.641 269.004 107.641 269.007C107.641 269.01 107.641 269.013 107.641 269.016C107.641 269.019 107.641 269.022 107.641 269.025C107.641 269.028 107.641 269.031 107.641 269.034C107.641 269.036 107.641 269.039 107.641 269.042C107.641 269.045 107.641 269.048 107.641 269.051C107.641 269.054 107.641 269.057 107.641 269.06C107.641 269.063 107.641 269.066 107.641 269.069C107.641 269.072 107.641 269.074 107.641 269.077C107.641 269.08 107.641 269.083 107.641 269.086C107.641 269.089 107.641 269.092 107.641 269.095C107.641 269.098 107.641 269.101 107.641 269.104C107.641 269.107 107.641 269.11 107.641 269.112C107.641 269.115 107.641 269.118 107.641 269.121C107.641 269.124 107.641 269.127 107.641 269.13C107.641 269.133 107.641 269.136 107.641 269.139C107.641 269.142 107.641 269.145 107.641 269.148C107.641 269.151 107.641 269.154 107.641 269.156C107.641 269.159 107.641 269.162 107.641 269.165C107.641 269.168 107.641 269.171 107.641 269.174C107.641 269.177 107.641 269.18 107.641 269.183C107.641 269.186 107.641 269.189 107.641 269.192C107.641 269.195 107.641 269.197 107.641 269.2C107.641 269.203 107.641 269.206 107.641 269.209C107.641 269.212 107.641 269.215 107.641 269.218C107.641 269.221 107.641 269.224 107.641 269.227C107.641 269.23 107.641 269.233 107.641 269.236C107.641 269.239 107.641 269.242 107.641 269.244C107.641 269.247 107.641 269.25 107.641 269.253C107.641 269.256 107.641 269.259 107.641 269.262C107.641 269.265 107.641 269.268 107.641 269.271C107.641 269.274 107.641 269.277 107.641 269.28C107.641 269.283 107.641 269.286 107.641 269.289C107.641 269.292 107.641 269.294 107.641 269.297C107.641 269.3 107.641 269.303 107.641 269.306C107.641 269.309 107.641 269.312 107.641 269.315C107.641 269.318 107.641 269.321 107.641 269.324C107.641 269.327 107.641 269.33 107.641 269.333C107.641 269.336 107.641 269.339 107.641 269.342C107.641 269.345 107.641 269.347 107.641 269.35C107.641 269.353 107.641 269.356 107.641 269.359C107.641 269.362 107.641 269.365 107.641 269.368C107.641 269.371 107.641 269.374 107.641 269.377C107.641 269.38 107.641 269.383 107.641 269.386C107.641 269.389 107.641 269.392 107.641 269.395C107.641 269.398 107.641 269.401 107.641 269.403C107.641 269.406 107.641 269.409 107.641 269.412C107.641 269.415 107.641 269.418 107.641 269.421C107.641 269.424 107.641 269.427 107.641 269.43C107.641 269.433 107.641 269.436 107.641 269.439C107.641 269.442 107.641 269.445 107.641 269.448C107.641 269.451 107.641 269.454 107.641 269.457C107.641 269.46 107.641 269.463 107.641 269.465C107.641 269.468 107.641 269.471 107.641 269.474C107.641 269.477 107.641 269.48 107.641 269.483C107.641 269.486 107.641 269.489 107.641 269.492C107.641 269.495 107.641 269.498 107.641 269.501C107.641 269.504 107.641 269.507 107.641 269.51C107.641 269.513 107.641 269.516 107.641 269.519C107.641 269.522 107.641 269.525 107.641 269.528C107.641 269.531 107.641 269.534 107.641 269.536C107.641 269.539 107.641 269.542 107.641 269.545C107.641 269.548 107.641 269.551 107.641 269.554C107.641 269.557 107.641 269.56 107.641 269.563C107.641 269.566 107.641 269.569 107.641 269.572C107.641 269.575 107.641 269.578 107.641 269.581C107.641 269.584 107.641 269.587 107.641 269.59C107.641 269.593 107.641 269.596 107.641 269.599C107.641 269.602 107.641 269.605 107.641 269.608C107.641 269.611 107.641 269.614 107.641 269.616C107.641 269.619 107.641 269.622 107.641 269.625C107.641 269.628 107.641 269.631 107.641 269.634C107.641 269.637 107.641 269.64 107.641 269.643C107.641 269.646 107.641 269.649 107.641 269.652C107.641 269.655 107.641 269.658 107.641 269.661C107.641 269.664 107.641 269.667 107.641 269.67C107.641 269.673 107.641 269.676 107.641 269.679C107.641 269.682 107.641 269.685 107.641 269.688C107.641 269.691 107.641 269.694 107.641 269.697C107.641 269.7 107.641 269.703 107.641 269.706C107.641 269.709 107.641 269.712 107.641 269.715C107.641 269.717 107.641 269.72 107.641 269.723C107.641 269.726 107.641 269.729 107.641 269.732C107.641 269.735 107.641 269.738 107.641 269.741C107.641 269.744 107.641 269.747 107.641 269.75C107.641 269.753 107.641 269.756 107.641 269.759C107.641 269.762 107.641 269.765 107.641 269.768C107.641 269.771 107.641 269.774 107.641 269.777C107.641 269.78 107.641 269.783 107.641 269.786C107.641 269.789 107.641 269.792 107.641 269.795C107.641 269.798 107.641 269.801 107.641 269.804C107.641 269.807 107.641 269.81 107.641 269.813C107.641 269.816 107.641 269.819 107.641 269.822C107.641 269.825 107.641 269.828 107.641 269.831C107.641 269.834 107.641 269.837 107.641 269.84C107.641 269.843 107.641 269.846 107.641 269.849C107.641 269.852 107.641 269.855 107.641 269.858C107.641 269.861 107.641 269.863 107.641 269.866C107.641 269.869 107.641 269.872 107.641 269.875C107.641 269.878 107.641 269.881 107.641 269.884C107.641 269.887 107.641 269.89 107.641 269.893C107.641 269.896 107.641 269.899 107.641 269.902C107.641 269.905 107.641 269.908 107.641 269.911C107.641 269.914 107.641 269.917 107.641 269.92C107.641 269.923 107.641 269.926 107.641 269.929C107.641 269.932 107.641 269.935 107.641 269.938C107.641 269.941 107.641 269.944 107.641 269.947C107.641 269.95 107.641 269.953 107.641 269.956C107.641 269.959 107.641 269.962 107.641 269.965C107.641 269.968 107.641 269.971 107.641 269.974C107.641 269.977 107.641 269.98 107.641 269.983C107.641 269.986 107.641 269.989 107.641 269.992C107.641 269.995 107.641 269.998 107.641 270.001C107.641 270.004 107.641 270.007 107.641 270.01C107.641 270.013 107.641 270.016 107.641 270.019C107.641 270.022 107.641 270.025 107.641 270.028C107.641 270.031 107.641 270.034 107.641 270.037C107.641 270.04 107.641 270.043 107.641 270.046C107.641 270.049 107.641 270.052 107.641 270.055C107.641 270.058 107.641 270.061 107.641 270.064C107.641 270.067 107.641 270.07 107.641 270.073C107.641 270.076 107.641 270.079 107.641 270.082C107.641 270.085 107.641 270.088 107.641 270.091C107.641 270.094 107.641 270.097 107.641 270.1C107.641 270.103 107.641 270.106 107.641 270.109C107.641 270.112 107.641 270.115 107.641 270.118C107.641 270.121 107.641 270.124 107.641 270.127C107.641 270.13 107.641 270.133 107.641 270.136C107.641 270.139 107.641 270.142 107.641 270.145C107.641 270.148 107.641 270.151 107.641 270.154C107.641 270.157 107.641 270.16 107.641 270.163C107.641 270.166 107.641 270.169 107.641 270.172C107.641 270.175 107.641 270.178 107.641 270.181C107.641 270.184 107.641 270.187 107.641 270.19C107.641 270.193 107.641 270.196 107.641 270.199C107.641 270.202 107.641 270.205 107.641 270.208C107.641 270.211 107.641 270.214 107.641 270.217C107.641 270.22 107.641 270.223 107.641 270.226C107.641 270.229 107.641 270.232 107.641 270.235C107.641 270.238 107.641 270.241 107.641 270.245C107.641 270.248 107.641 270.251 107.641 270.254C107.641 270.257 107.641 270.26 107.641 270.263C107.641 270.266 107.641 270.269 107.641 270.272C107.641 270.275 107.641 270.278 107.641 270.281C107.641 270.284 107.641 270.287 107.641 270.29C107.641 270.293 107.641 270.296 107.641 270.299C107.641 270.302 107.641 270.305 107.641 270.308C107.641 270.311 107.641 270.314 107.641 270.317C107.641 270.32 107.641 270.323 107.641 270.326C107.641 270.329 107.641 270.332 107.641 270.335C107.641 270.338 107.641 270.341 107.641 270.344C107.641 270.347 107.641 270.35 107.641 270.353C107.641 270.356 107.641 270.359 107.641 270.362C107.641 270.365 107.641 270.368 107.641 270.371C107.641 270.374 107.641 270.377 107.641 270.38C107.641 270.383 107.641 270.386 107.641 270.389C107.641 270.392 107.641 270.396 107.641 270.399C107.641 270.402 107.641 270.405 107.641 270.408C107.641 270.411 107.641 270.414 107.641 270.417C107.641 270.42 107.641 270.423 107.641 270.426C107.641 270.429 107.641 270.432 107.641 270.435C107.641 270.438 107.641 270.441 107.641 270.444C107.641 270.447 107.641 270.45 107.641 270.453C107.641 270.456 107.641 270.459 107.641 270.462C107.641 270.465 107.641 270.468 107.641 270.471C107.641 270.474 107.641 270.477 107.641 270.48C107.641 270.483 107.641 270.486 107.641 270.489C107.641 270.492 107.641 270.495 107.641 270.499C107.641 270.502 107.641 270.505 107.641 270.508C107.641 270.511 107.641 270.514 107.641 270.517C107.641 270.52 107.641 270.523 107.641 270.526C107.641 270.529 107.641 270.532 107.641 270.535C107.641 270.538 107.641 270.541 107.641 270.544C107.641 270.547 107.641 270.55 107.641 270.553C107.641 270.556 107.641 270.559 107.641 270.562C107.641 270.565 107.641 270.568 107.641 270.571C107.641 270.574 107.641 270.577 107.641 270.581C107.641 270.584 107.641 270.587 107.641 270.59C107.641 270.593 107.641 270.596 107.641 270.599C107.641 270.602 107.641 270.605 107.641 270.608C107.641 270.611 107.641 270.614 107.641 270.617C107.641 270.62 107.641 270.623 107.641 270.626C107.641 270.629 107.641 270.632 107.641 270.635C107.641 270.638 107.641 270.641 107.641 270.644C107.641 270.647 107.641 270.65 107.641 270.654C107.641 270.657 107.641 270.66 107.641 270.663C107.641 270.666 107.641 270.669 107.641 270.672C107.641 270.675 107.641 270.678 107.641 270.681C107.641 270.684 107.641 270.687 107.641 270.69C107.641 270.693 107.641 270.696 107.641 270.699C107.641 270.702 107.641 270.705 107.641 270.708C107.641 270.711 107.641 270.714 107.641 270.718C107.641 270.721 107.641 270.724 107.641 270.727C107.641 270.73 107.641 270.733 107.641 270.736C107.641 270.739 107.641 270.742 107.641 270.745C107.641 270.748 107.641 270.751 107.641 270.754C107.641 270.757 107.641 270.76 107.641 270.763C107.641 270.766 107.641 270.769 107.641 270.772C107.641 270.776 107.641 270.779 107.641 270.782C107.641 270.785 107.641 270.788 107.641 270.791C107.641 270.794 107.641 270.797 107.641 270.8C107.641 270.803 107.641 270.806 107.641 270.809C107.641 270.812 107.641 270.815 107.641 270.818C107.641 270.821 107.641 270.824 107.641 270.827C107.641 270.831 107.641 270.834 107.641 270.837C107.641 270.84 107.641 270.843 107.641 270.846C107.641 270.849 107.641 270.852 107.641 270.855C107.641 270.858 107.641 270.861 107.641 270.864C107.641 270.867 107.641 270.87 107.641 270.873C107.641 270.876 107.641 270.879 107.641 270.883C107.641 270.886 107.641 270.889 107.641 270.892C107.641 270.895 107.641 270.898 107.641 270.901C107.641 270.904 107.641 270.907 107.641 270.91C107.641 270.913 107.641 270.916 107.641 270.919C107.641 270.922 107.641 270.925 107.641 270.928C107.641 270.932 107.641 270.935 107.641 270.938C107.641 270.941 107.641 270.944 107.641 270.947C107.641 270.95 107.641 270.953 107.641 270.956C107.641 270.959 107.641 270.962 107.641 270.965C107.641 270.968 107.641 270.971 107.641 270.975C107.641 270.978 107.641 270.981 107.641 270.984C107.641 270.987 107.641 270.99 107.641 270.993C107.641 270.996 107.641 270.999 107.641 271.002C107.641 271.005 107.641 271.008 107.641 271.011C107.641 271.014 107.641 271.017 107.641 271.021C107.641 271.024 107.641 271.027 107.641 271.03C107.641 271.033 107.641 271.036 107.641 271.039C107.641 271.042 107.641 271.045 107.641 271.048C107.641 271.051 107.641 271.054 107.641 271.057C107.641 271.061 107.641 271.064 107.641 271.067C107.641 271.07 107.641 271.073 107.641 271.076C107.641 271.079 107.641 271.082 107.641 271.085C107.641 271.088 107.641 271.091 107.641 271.094C107.641 271.097 107.641 271.101 107.641 271.104C107.641 271.107 107.641 271.11 107.641 271.113C107.641 271.116 107.641 271.119 107.641 271.122C107.641 271.125 107.641 271.128 107.641 271.131C107.641 271.134 107.641 271.137 107.641 271.141C107.641 271.144 107.641 271.147 107.641 271.15C107.641 271.153 107.641 271.156 107.641 271.159C107.641 271.162 107.641 271.165 107.641 271.168C107.641 271.171 107.641 271.174 107.641 271.178C107.641 271.181 107.641 271.184 107.641 271.187C107.641 271.19 107.641 271.193 107.641 271.196C107.641 271.199 107.641 271.202 107.641 271.205C107.641 271.208 107.641 271.211 107.641 271.215C107.641 271.218 107.641 271.221 107.641 271.224C107.641 271.227 107.641 271.23 107.641 271.233C107.641 271.236 107.641 271.239 107.641 271.242C107.641 271.245 107.641 271.249 107.641 271.252C107.641 271.255 107.641 271.258 107.641 271.261C107.641 271.264 107.641 271.267 107.641 271.27C107.641 271.273 107.641 271.276 107.641 271.279C107.641 271.283 107.641 271.286 107.641 271.289C107.641 271.292 107.641 271.295 107.641 271.298C107.641 271.301 107.641 271.304 107.641 271.307C107.641 271.31 107.641 271.313 107.641 271.317C107.641 271.32 107.641 271.323 107.641 271.326C107.641 271.329 107.641 271.332 107.641 271.335C107.641 271.338 107.641 271.341 107.641 271.344C107.641 271.348 107.641 271.351 107.641 271.354C107.641 271.357 107.641 271.36 107.641 271.363C107.641 271.366 107.641 271.369 107.641 271.372C107.641 271.375 107.641 271.378 107.641 271.382C107.641 271.385 107.641 271.388 107.641 271.391C107.641 271.394 107.641 271.397 107.641 271.4C107.641 271.403 107.641 271.406 107.641 271.409C107.641 271.413 107.641 271.416 107.641 271.419C107.641 271.422 107.641 271.425 107.641 271.428C107.641 271.431 107.641 271.434 107.641 271.437C107.641 271.441 107.641 271.444 107.641 271.447C107.641 271.45 107.641 271.453 107.641 271.456C107.641 271.459 107.641 271.462 107.641 271.465C107.641 271.468 107.641 271.472 107.641 271.475C107.641 271.478 107.641 271.481 107.641 271.484C107.641 271.487 107.641 271.49 107.641 271.493C107.641 271.496 107.641 271.5 107.641 271.503C107.641 271.506 107.641 271.509 107.641 271.512C107.641 271.515 107.641 271.518 107.641 271.521C107.641 271.524 107.641 271.527 107.641 271.531C107.641 271.534 107.641 271.537 107.641 271.54C107.641 271.543 107.641 271.546 107.641 271.549C107.641 271.552 107.641 271.555 107.641 271.559C107.641 271.562 107.641 271.565 107.641 271.568C107.641 271.571 107.641 271.574 107.641 271.577C107.641 271.58 107.641 271.583 107.641 271.587C107.641 271.59 107.641 271.593 107.641 271.596C107.641 271.599 107.641 271.602 107.641 271.605C107.641 271.608 107.641 271.612 107.641 271.615C107.641 271.618 107.641 271.621 107.641 271.624C107.641 271.627 107.641 271.63 107.641 271.633C107.641 271.636 107.641 271.64 107.641 271.643C107.641 271.646 107.641 271.649 107.641 271.652C107.641 271.655 107.641 271.658 107.641 271.661C107.641 271.665 107.641 271.668 107.641 271.671C107.641 271.674 107.641 271.677 107.641 271.68C107.641 271.683 107.641 271.686 107.641 271.689C107.641 271.693 107.641 271.696 107.641 271.699C107.641 271.702 107.641 271.705 107.641 271.708C107.641 271.711 107.641 271.714 107.641 271.718C107.641 271.721 107.641 271.724 107.641 271.727C107.641 271.73 107.641 271.733 107.641 271.736C107.641 271.739 107.641 271.743 107.641 271.746C107.641 271.749 107.641 271.752 107.641 271.755C107.641 271.758 107.641 271.761 107.641 271.764C107.641 271.768 107.641 271.771 107.641 271.774C107.641 271.777 107.641 271.78 107.641 271.783C107.641 271.786 107.641 271.789 107.641 271.793C107.641 271.796 107.641 271.799 107.641 271.802C107.641 271.805 107.641 271.808 107.641 271.811C107.641 271.815 107.641 271.818 107.641 271.821C107.641 271.824 107.641 271.827 107.641 271.83C107.641 271.833 107.641 271.836 107.641 271.84C107.641 271.843 107.641 271.846 107.641 271.849C107.641 271.852 107.641 271.855 107.641 271.858C107.641 271.862 107.641 271.865 107.641 271.868C107.641 271.871 107.641 271.874 107.641 271.877C107.641 271.88 107.641 271.883 107.641 271.887C107.641 271.89 107.641 271.893 107.641 271.896C107.641 271.899 107.641 271.902 107.641 271.905C107.641 271.909 107.641 271.912 107.641 271.915C107.641 271.918 107.641 271.921 107.641 271.924C107.641 271.927 107.641 271.931 107.641 271.934H107.841C107.841 271.931 107.841 271.927 107.841 271.924C107.841 271.921 107.841 271.918 107.841 271.915C107.841 271.912 107.841 271.909 107.841 271.905C107.841 271.902 107.841 271.899 107.841 271.896C107.841 271.893 107.841 271.89 107.841 271.887C107.841 271.883 107.841 271.88 107.841 271.877C107.841 271.874 107.841 271.871 107.841 271.868C107.841 271.865 107.841 271.862 107.841 271.858C107.841 271.855 107.841 271.852 107.841 271.849C107.841 271.846 107.841 271.843 107.841 271.84C107.841 271.836 107.841 271.833 107.841 271.83C107.841 271.827 107.841 271.824 107.841 271.821C107.841 271.818 107.841 271.815 107.841 271.811C107.841 271.808 107.841 271.805 107.841 271.802C107.841 271.799 107.841 271.796 107.841 271.793C107.841 271.789 107.841 271.786 107.841 271.783C107.841 271.78 107.841 271.777 107.841 271.774C107.841 271.771 107.841 271.768 107.841 271.764C107.841 271.761 107.841 271.758 107.841 271.755C107.841 271.752 107.841 271.749 107.841 271.746C107.841 271.743 107.841 271.739 107.841 271.736C107.841 271.733 107.841 271.73 107.841 271.727C107.841 271.724 107.841 271.721 107.841 271.718C107.841 271.714 107.841 271.711 107.841 271.708C107.841 271.705 107.841 271.702 107.841 271.699C107.841 271.696 107.841 271.693 107.841 271.689C107.841 271.686 107.841 271.683 107.841 271.68C107.841 271.677 107.841 271.674 107.841 271.671C107.841 271.668 107.841 271.665 107.841 271.661C107.841 271.658 107.841 271.655 107.841 271.652C107.841 271.649 107.841 271.646 107.841 271.643C107.841 271.64 107.841 271.636 107.841 271.633C107.841 271.63 107.841 271.627 107.841 271.624C107.841 271.621 107.841 271.618 107.841 271.615C107.841 271.612 107.841 271.608 107.841 271.605C107.841 271.602 107.841 271.599 107.841 271.596C107.841 271.593 107.841 271.59 107.841 271.587C107.841 271.583 107.841 271.58 107.841 271.577C107.841 271.574 107.841 271.571 107.841 271.568C107.841 271.565 107.841 271.562 107.841 271.559C107.841 271.555 107.841 271.552 107.841 271.549C107.841 271.546 107.841 271.543 107.841 271.54C107.841 271.537 107.841 271.534 107.841 271.531C107.841 271.527 107.841 271.524 107.841 271.521C107.841 271.518 107.841 271.515 107.841 271.512C107.841 271.509 107.841 271.506 107.841 271.503C107.841 271.5 107.841 271.496 107.841 271.493C107.841 271.49 107.841 271.487 107.841 271.484C107.841 271.481 107.841 271.478 107.841 271.475C107.841 271.472 107.841 271.468 107.841 271.465C107.841 271.462 107.841 271.459 107.841 271.456C107.841 271.453 107.841 271.45 107.841 271.447C107.841 271.444 107.841 271.441 107.841 271.437C107.841 271.434 107.841 271.431 107.841 271.428C107.841 271.425 107.841 271.422 107.841 271.419C107.841 271.416 107.841 271.413 107.841 271.409C107.841 271.406 107.841 271.403 107.841 271.4C107.841 271.397 107.841 271.394 107.841 271.391C107.841 271.388 107.841 271.385 107.841 271.382C107.841 271.378 107.841 271.375 107.841 271.372C107.841 271.369 107.841 271.366 107.841 271.363C107.841 271.36 107.841 271.357 107.841 271.354C107.841 271.351 107.841 271.348 107.841 271.344C107.841 271.341 107.841 271.338 107.841 271.335C107.841 271.332 107.841 271.329 107.841 271.326C107.841 271.323 107.841 271.32 107.841 271.317C107.841 271.313 107.841 271.31 107.841 271.307C107.841 271.304 107.841 271.301 107.841 271.298C107.841 271.295 107.841 271.292 107.841 271.289C107.841 271.286 107.841 271.283 107.841 271.279C107.841 271.276 107.841 271.273 107.841 271.27C107.841 271.267 107.841 271.264 107.841 271.261C107.841 271.258 107.841 271.255 107.841 271.252C107.841 271.249 107.841 271.245 107.841 271.242C107.841 271.239 107.841 271.236 107.841 271.233C107.841 271.23 107.841 271.227 107.841 271.224C107.841 271.221 107.841 271.218 107.841 271.215C107.841 271.211 107.841 271.208 107.841 271.205C107.841 271.202 107.841 271.199 107.841 271.196C107.841 271.193 107.841 271.19 107.841 271.187C107.841 271.184 107.841 271.181 107.841 271.178C107.841 271.174 107.841 271.171 107.841 271.168C107.841 271.165 107.841 271.162 107.841 271.159C107.841 271.156 107.841 271.153 107.841 271.15C107.841 271.147 107.841 271.144 107.841 271.141C107.841 271.137 107.841 271.134 107.841 271.131C107.841 271.128 107.841 271.125 107.841 271.122C107.841 271.119 107.841 271.116 107.841 271.113C107.841 271.11 107.841 271.107 107.841 271.104C107.841 271.101 107.841 271.097 107.841 271.094C107.841 271.091 107.841 271.088 107.841 271.085C107.841 271.082 107.841 271.079 107.841 271.076C107.841 271.073 107.841 271.07 107.841 271.067C107.841 271.064 107.841 271.061 107.841 271.057C107.841 271.054 107.841 271.051 107.841 271.048C107.841 271.045 107.841 271.042 107.841 271.039C107.841 271.036 107.841 271.033 107.841 271.03C107.841 271.027 107.841 271.024 107.841 271.021C107.841 271.017 107.841 271.014 107.841 271.011C107.841 271.008 107.841 271.005 107.841 271.002C107.841 270.999 107.841 270.996 107.841 270.993C107.841 270.99 107.841 270.987 107.841 270.984C107.841 270.981 107.841 270.978 107.841 270.975C107.841 270.971 107.841 270.968 107.841 270.965C107.841 270.962 107.841 270.959 107.841 270.956C107.841 270.953 107.841 270.95 107.841 270.947C107.841 270.944 107.841 270.941 107.841 270.938C107.841 270.935 107.841 270.932 107.841 270.928C107.841 270.925 107.841 270.922 107.841 270.919C107.841 270.916 107.841 270.913 107.841 270.91C107.841 270.907 107.841 270.904 107.841 270.901C107.841 270.898 107.841 270.895 107.841 270.892C107.841 270.889 107.841 270.886 107.841 270.883C107.841 270.879 107.841 270.876 107.841 270.873C107.841 270.87 107.841 270.867 107.841 270.864C107.841 270.861 107.841 270.858 107.841 270.855C107.841 270.852 107.841 270.849 107.841 270.846C107.841 270.843 107.841 270.84 107.841 270.837C107.841 270.834 107.841 270.831 107.841 270.827C107.841 270.824 107.841 270.821 107.841 270.818C107.841 270.815 107.841 270.812 107.841 270.809C107.841 270.806 107.841 270.803 107.841 270.8C107.841 270.797 107.841 270.794 107.841 270.791C107.841 270.788 107.841 270.785 107.841 270.782C107.841 270.779 107.841 270.776 107.841 270.772C107.841 270.769 107.841 270.766 107.841 270.763C107.841 270.76 107.841 270.757 107.841 270.754C107.841 270.751 107.841 270.748 107.841 270.745C107.841 270.742 107.841 270.739 107.841 270.736C107.841 270.733 107.841 270.73 107.841 270.727C107.841 270.724 107.841 270.721 107.841 270.718C107.841 270.714 107.841 270.711 107.841 270.708C107.841 270.705 107.841 270.702 107.841 270.699C107.841 270.696 107.841 270.693 107.841 270.69C107.841 270.687 107.841 270.684 107.841 270.681C107.841 270.678 107.841 270.675 107.841 270.672C107.841 270.669 107.841 270.666 107.841 270.663C107.841 270.66 107.841 270.657 107.841 270.654C107.841 270.65 107.841 270.647 107.841 270.644C107.841 270.641 107.841 270.638 107.841 270.635C107.841 270.632 107.841 270.629 107.841 270.626C107.841 270.623 107.841 270.62 107.841 270.617C107.841 270.614 107.841 270.611 107.841 270.608C107.841 270.605 107.841 270.602 107.841 270.599C107.841 270.596 107.841 270.593 107.841 270.59C107.841 270.587 107.841 270.584 107.841 270.581C107.841 270.577 107.841 270.574 107.841 270.571C107.841 270.568 107.841 270.565 107.841 270.562C107.841 270.559 107.841 270.556 107.841 270.553C107.841 270.55 107.841 270.547 107.841 270.544C107.841 270.541 107.841 270.538 107.841 270.535C107.841 270.532 107.841 270.529 107.841 270.526C107.841 270.523 107.841 270.52 107.841 270.517C107.841 270.514 107.841 270.511 107.841 270.508C107.841 270.505 107.841 270.502 107.841 270.499C107.841 270.495 107.841 270.492 107.841 270.489C107.841 270.486 107.841 270.483 107.841 270.48C107.841 270.477 107.841 270.474 107.841 270.471C107.841 270.468 107.841 270.465 107.841 270.462C107.841 270.459 107.841 270.456 107.841 270.453C107.841 270.45 107.841 270.447 107.841 270.444C107.841 270.441 107.841 270.438 107.841 270.435C107.841 270.432 107.841 270.429 107.841 270.426C107.841 270.423 107.841 270.42 107.841 270.417C107.841 270.414 107.841 270.411 107.841 270.408C107.841 270.405 107.841 270.402 107.841 270.399C107.841 270.396 107.841 270.392 107.841 270.389C107.841 270.386 107.841 270.383 107.841 270.38C107.841 270.377 107.841 270.374 107.841 270.371C107.841 270.368 107.841 270.365 107.841 270.362C107.841 270.359 107.841 270.356 107.841 270.353C107.841 270.35 107.841 270.347 107.841 270.344C107.841 270.341 107.841 270.338 107.841 270.335C107.841 270.332 107.841 270.329 107.841 270.326C107.841 270.323 107.841 270.32 107.841 270.317C107.841 270.314 107.841 270.311 107.841 270.308C107.841 270.305 107.841 270.302 107.841 270.299C107.841 270.296 107.841 270.293 107.841 270.29C107.841 270.287 107.841 270.284 107.841 270.281C107.841 270.278 107.841 270.275 107.841 270.272C107.841 270.269 107.841 270.266 107.841 270.263C107.841 270.26 107.841 270.257 107.841 270.254C107.841 270.251 107.841 270.248 107.841 270.245C107.841 270.241 107.841 270.238 107.841 270.235C107.841 270.232 107.841 270.229 107.841 270.226C107.841 270.223 107.841 270.22 107.841 270.217C107.841 270.214 107.841 270.211 107.841 270.208C107.841 270.205 107.841 270.202 107.841 270.199C107.841 270.196 107.841 270.193 107.841 270.19C107.841 270.187 107.841 270.184 107.841 270.181C107.841 270.178 107.841 270.175 107.841 270.172C107.841 270.169 107.841 270.166 107.841 270.163C107.841 270.16 107.841 270.157 107.841 270.154C107.841 270.151 107.841 270.148 107.841 270.145C107.841 270.142 107.841 270.139 107.841 270.136C107.841 270.133 107.841 270.13 107.841 270.127C107.841 270.124 107.841 270.121 107.841 270.118C107.841 270.115 107.841 270.112 107.841 270.109C107.841 270.106 107.841 270.103 107.841 270.1C107.841 270.097 107.841 270.094 107.841 270.091C107.841 270.088 107.841 270.085 107.841 270.082C107.841 270.079 107.841 270.076 107.841 270.073C107.841 270.07 107.841 270.067 107.841 270.064C107.841 270.061 107.841 270.058 107.841 270.055C107.841 270.052 107.841 270.049 107.841 270.046C107.841 270.043 107.841 270.04 107.841 270.037C107.841 270.034 107.841 270.031 107.841 270.028C107.841 270.025 107.841 270.022 107.841 270.019C107.841 270.016 107.841 270.013 107.841 270.01C107.841 270.007 107.841 270.004 107.841 270.001C107.841 269.998 107.841 269.995 107.841 269.992C107.841 269.989 107.841 269.986 107.841 269.983C107.841 269.98 107.841 269.977 107.841 269.974C107.841 269.971 107.841 269.968 107.841 269.965C107.841 269.962 107.841 269.959 107.841 269.956C107.841 269.953 107.841 269.95 107.841 269.947C107.841 269.944 107.841 269.941 107.841 269.938C107.841 269.935 107.841 269.932 107.841 269.929C107.841 269.926 107.841 269.923 107.841 269.92C107.841 269.917 107.841 269.914 107.841 269.911C107.841 269.908 107.841 269.905 107.841 269.902C107.841 269.899 107.841 269.896 107.841 269.893C107.841 269.89 107.841 269.887 107.841 269.884C107.841 269.881 107.841 269.878 107.841 269.875C107.841 269.872 107.841 269.869 107.841 269.866C107.841 269.863 107.841 269.861 107.841 269.858C107.841 269.855 107.841 269.852 107.841 269.849C107.841 269.846 107.841 269.843 107.841 269.84C107.841 269.837 107.841 269.834 107.841 269.831C107.841 269.828 107.841 269.825 107.841 269.822C107.841 269.819 107.841 269.816 107.841 269.813C107.841 269.81 107.841 269.807 107.841 269.804C107.841 269.801 107.841 269.798 107.841 269.795C107.841 269.792 107.841 269.789 107.841 269.786C107.841 269.783 107.841 269.78 107.841 269.777C107.841 269.774 107.841 269.771 107.841 269.768C107.841 269.765 107.841 269.762 107.841 269.759C107.841 269.756 107.841 269.753 107.841 269.75C107.841 269.747 107.841 269.744 107.841 269.741C107.841 269.738 107.841 269.735 107.841 269.732C107.841 269.729 107.841 269.726 107.841 269.723C107.841 269.72 107.841 269.717 107.841 269.715C107.841 269.712 107.841 269.709 107.841 269.706C107.841 269.703 107.841 269.7 107.841 269.697C107.841 269.694 107.841 269.691 107.841 269.688C107.841 269.685 107.841 269.682 107.841 269.679C107.841 269.676 107.841 269.673 107.841 269.67C107.841 269.667 107.841 269.664 107.841 269.661C107.841 269.658 107.841 269.655 107.841 269.652C107.841 269.649 107.841 269.646 107.841 269.643C107.841 269.64 107.841 269.637 107.841 269.634C107.841 269.631 107.841 269.628 107.841 269.625C107.841 269.622 107.841 269.619 107.841 269.616C107.841 269.614 107.841 269.611 107.841 269.608C107.841 269.605 107.841 269.602 107.841 269.599C107.841 269.596 107.841 269.593 107.841 269.59C107.841 269.587 107.841 269.584 107.841 269.581C107.841 269.578 107.841 269.575 107.841 269.572C107.841 269.569 107.841 269.566 107.841 269.563C107.841 269.56 107.841 269.557 107.841 269.554C107.841 269.551 107.841 269.548 107.841 269.545C107.841 269.542 107.841 269.539 107.841 269.536C107.841 269.534 107.841 269.531 107.841 269.528C107.841 269.525 107.841 269.522 107.841 269.519C107.841 269.516 107.841 269.513 107.841 269.51C107.841 269.507 107.841 269.504 107.841 269.501C107.841 269.498 107.841 269.495 107.841 269.492C107.841 269.489 107.841 269.486 107.841 269.483C107.841 269.48 107.841 269.477 107.841 269.474C107.841 269.471 107.841 269.468 107.841 269.465C107.841 269.463 107.841 269.46 107.841 269.457C107.841 269.454 107.841 269.451 107.841 269.448C107.841 269.445 107.841 269.442 107.841 269.439C107.841 269.436 107.841 269.433 107.841 269.43C107.841 269.427 107.841 269.424 107.841 269.421C107.841 269.418 107.841 269.415 107.841 269.412C107.841 269.409 107.841 269.406 107.841 269.403C107.841 269.401 107.841 269.398 107.841 269.395C107.841 269.392 107.841 269.389 107.841 269.386C107.841 269.383 107.841 269.38 107.841 269.377C107.841 269.374 107.841 269.371 107.841 269.368C107.841 269.365 107.841 269.362 107.841 269.359C107.841 269.356 107.841 269.353 107.841 269.35C107.841 269.347 107.841 269.345 107.841 269.342C107.841 269.339 107.841 269.336 107.841 269.333C107.841 269.33 107.841 269.327 107.841 269.324C107.841 269.321 107.841 269.318 107.841 269.315C107.841 269.312 107.841 269.309 107.841 269.306C107.841 269.303 107.841 269.3 107.841 269.297C107.841 269.294 107.841 269.292 107.841 269.289C107.841 269.286 107.841 269.283 107.841 269.28C107.841 269.277 107.841 269.274 107.841 269.271C107.841 269.268 107.841 269.265 107.841 269.262C107.841 269.259 107.841 269.256 107.841 269.253C107.841 269.25 107.841 269.247 107.841 269.244C107.841 269.242 107.841 269.239 107.841 269.236C107.841 269.233 107.841 269.23 107.841 269.227C107.841 269.224 107.841 269.221 107.841 269.218C107.841 269.215 107.841 269.212 107.841 269.209C107.841 269.206 107.841 269.203 107.841 269.2C107.841 269.197 107.841 269.195 107.841 269.192C107.841 269.189 107.841 269.186 107.841 269.183C107.841 269.18 107.841 269.177 107.841 269.174C107.841 269.171 107.841 269.168 107.841 269.165C107.841 269.162 107.841 269.159 107.841 269.156C107.841 269.154 107.841 269.151 107.841 269.148C107.841 269.145 107.841 269.142 107.841 269.139C107.841 269.136 107.841 269.133 107.841 269.13C107.841 269.127 107.841 269.124 107.841 269.121C107.841 269.118 107.841 269.115 107.841 269.112C107.841 269.11 107.841 269.107 107.841 269.104C107.841 269.101 107.841 269.098 107.841 269.095C107.841 269.092 107.841 269.089 107.841 269.086C107.841 269.083 107.841 269.08 107.841 269.077C107.841 269.074 107.841 269.072 107.841 269.069C107.841 269.066 107.841 269.063 107.841 269.06C107.841 269.057 107.841 269.054 107.841 269.051C107.841 269.048 107.841 269.045 107.841 269.042C107.841 269.039 107.841 269.036 107.841 269.034C107.841 269.031 107.841 269.028 107.841 269.025C107.841 269.022 107.841 269.019 107.841 269.016C107.841 269.013 107.841 269.01 107.841 269.007C107.841 269.004 107.841 269.001 107.841 268.998C107.841 268.996 107.841 268.993 107.841 268.99C107.841 268.987 107.841 268.984 107.841 268.981C107.841 268.978 107.841 268.975 107.841 268.972C107.841 268.969 107.841 268.966 107.841 268.963C107.841 268.961 107.841 268.958 107.841 268.955C107.841 268.952 107.841 268.949 107.841 268.946C107.841 268.943 107.841 268.94 107.841 268.937C107.841 268.934 107.841 268.931 107.841 268.928C107.841 268.926 107.841 268.923 107.841 268.92C107.841 268.917 107.841 268.914 107.841 268.911C107.841 268.908 107.841 268.905 107.841 268.902C107.841 268.899 107.841 268.896 107.841 268.894C107.841 268.891 107.841 268.888 107.841 268.885C107.841 268.882 107.841 268.879 107.841 268.876C107.841 268.873 107.841 268.87 107.841 268.867C107.841 268.864 107.841 268.862 107.841 268.859C107.841 268.856 107.841 268.853 107.841 268.85C107.841 268.847 107.841 268.844 107.841 268.841C107.841 268.838 107.841 268.835 107.841 268.832C107.841 268.83 107.841 268.827 107.841 268.824C107.841 268.821 107.841 268.818 107.841 268.815C107.841 268.812 107.841 268.809 107.841 268.806C107.841 268.803 107.841 268.801 107.841 268.798C107.841 268.795 107.841 268.792 107.841 268.789C107.841 268.786 107.841 268.783 107.841 268.78C107.841 268.777 107.841 268.774 107.841 268.771C107.841 268.769 107.841 268.766 107.841 268.763C107.841 268.76 107.841 268.757 107.841 268.754C107.841 268.751 107.841 268.748 107.841 268.745C107.841 268.742 107.841 268.74 107.841 268.737C107.841 268.734 107.841 268.731 107.841 268.728C107.841 268.725 107.841 268.722 107.841 268.719C107.841 268.716 107.841 268.714 107.841 268.711C107.841 268.708 107.841 268.705 107.841 268.702C107.841 268.699 107.841 268.696 107.841 268.693C107.841 268.69 107.841 268.687 107.841 268.685C107.841 268.682 107.841 268.679 107.841 268.676C107.841 268.673 107.841 268.67 107.841 268.667C107.841 268.664 107.841 268.661 107.841 268.659C107.841 268.656 107.841 268.653 107.841 268.65C107.841 268.647 107.841 268.644 107.841 268.641C107.841 268.638 107.841 268.635 107.841 268.632C107.841 268.63 107.841 268.627 107.841 268.624C107.841 268.621 107.841 268.618 107.841 268.615C107.841 268.612 107.841 268.609 107.841 268.606C107.841 268.604 107.841 268.601 107.841 268.598C107.841 268.595 107.841 268.592 107.841 268.589C107.841 268.586 107.841 268.583 107.841 268.58C107.841 268.578 107.841 268.575 107.841 268.572C107.841 268.569 107.841 268.566 107.841 268.563C107.841 268.56 107.841 268.557 107.841 268.555C107.841 268.552 107.841 268.549 107.841 268.546C107.841 268.543 107.841 268.54 107.841 268.537C107.841 268.534 107.841 268.531 107.841 268.529C107.841 268.526 107.841 268.523 107.841 268.52C107.841 268.517 107.841 268.514 107.841 268.511C107.841 268.508 107.841 268.506 107.841 268.503C107.841 268.5 107.841 268.497 107.841 268.494C107.841 268.491 107.841 268.488 107.841 268.485C107.841 268.482 107.841 268.48 107.841 268.477C107.841 268.474 107.841 268.471 107.841 268.468C107.841 268.465 107.841 268.462 107.841 268.459C107.841 268.457 107.841 268.454 107.841 268.451C107.841 268.448 107.841 268.445 107.841 268.442C107.841 268.439 107.841 268.436 107.841 268.434C107.841 268.431 107.841 268.428 107.841 268.425C107.841 268.422 107.841 268.419 107.841 268.416C107.841 268.413 107.841 268.411 107.841 268.408C107.841 268.405 107.841 268.402 107.841 268.399C107.841 268.396 107.841 268.393 107.841 268.39C107.841 268.388 107.841 268.385 107.841 268.382C107.841 268.379 107.841 268.376 107.841 268.373C107.841 268.37 107.841 268.368 107.841 268.365C107.841 268.362 107.841 268.359 107.841 268.356C107.841 268.353 107.841 268.35 107.841 268.347C107.841 268.345 107.841 268.342 107.841 268.339C107.841 268.336 107.841 268.333 107.841 268.33C107.841 268.327 107.841 268.324 107.841 268.322C107.841 268.319 107.841 268.316 107.841 268.313C107.841 268.31 107.841 268.307 107.841 268.304C107.841 268.302 107.841 268.299 107.841 268.296C107.841 268.293 107.841 268.29 107.841 268.287C107.841 268.284 107.841 268.282 107.841 268.279C107.841 268.276 107.841 268.273 107.841 268.27C107.841 268.267 107.841 268.264 107.841 268.262C107.841 268.259 107.841 268.256 107.841 268.253C107.841 268.25 107.841 268.247 107.841 268.244C107.841 268.241 107.841 268.239 107.841 268.236C107.841 268.233 107.841 268.23 107.841 268.227C107.841 268.224 107.841 268.221 107.841 268.219C107.841 268.216 107.841 268.213 107.841 268.21C107.841 268.207 107.841 268.204 107.841 268.201C107.841 268.199 107.841 268.196 107.841 268.193C107.841 268.19 107.841 268.187 107.841 268.184C107.841 268.181 107.841 268.179 107.841 268.176C107.841 268.173 107.841 268.17 107.841 268.167C107.841 268.164 107.841 268.161 107.841 268.159C107.841 268.156 107.841 268.153 107.841 268.15C107.841 268.147 107.841 268.144 107.841 268.142C107.841 268.139 107.841 268.136 107.841 268.133C107.841 268.13 107.841 268.127 107.841 268.124C107.841 268.122 107.841 268.119 107.841 268.116C107.841 268.113 107.841 268.11 107.841 268.107C107.841 268.104 107.841 268.102 107.841 268.099C107.841 268.096 107.841 268.093 107.841 268.09C107.841 268.087 107.841 268.085 107.841 268.082C107.841 268.079 107.841 268.076 107.841 268.073C107.841 268.07 107.841 268.067 107.841 268.065C107.841 268.062 107.841 268.059 107.841 268.056C107.841 268.053 107.841 268.05 107.841 268.048C107.841 268.045 107.841 268.042 107.841 268.039C107.841 268.036 107.841 268.033 107.841 268.03C107.841 268.028 107.841 268.025 107.841 268.022C107.841 268.019 107.841 268.016 107.841 268.013C107.841 268.011 107.841 268.008 107.841 268.005C107.841 268.002 107.841 267.999 107.841 267.996C107.841 267.994 107.841 267.991 107.841 267.988C107.841 267.985 107.841 267.982 107.841 267.979C107.841 267.977 107.841 267.974 107.841 267.971C107.841 267.968 107.841 267.965 107.841 267.962C107.841 267.959 107.841 267.957 107.841 267.954C107.841 267.951 107.841 267.948 107.841 267.945C107.841 267.942 107.841 267.94 107.841 267.937C107.841 267.934 107.841 267.931 107.841 267.928C107.841 267.925 107.841 267.923 107.841 267.92C107.841 267.917 107.841 267.914 107.841 267.911C107.841 267.908 107.841 267.906 107.841 267.903C107.841 267.9 107.841 267.897 107.841 267.894C107.841 267.891 107.841 267.889 107.841 267.886C107.841 267.883 107.841 267.88 107.841 267.877C107.841 267.874 107.841 267.872 107.841 267.869C107.841 267.866 107.841 267.863 107.841 267.86C107.841 267.857 107.841 267.855 107.841 267.852C107.841 267.849 107.841 267.846 107.841 267.843C107.841 267.841 107.841 267.838 107.841 267.835C107.841 267.832 107.841 267.829 107.841 267.826C107.841 267.824 107.841 267.821 107.841 267.818C107.841 267.815 107.841 267.812 107.841 267.809C107.841 267.807 107.841 267.804 107.841 267.801C107.841 267.798 107.841 267.795 107.841 267.792C107.841 267.79 107.841 267.787 107.841 267.784C107.841 267.781 107.841 267.778 107.841 267.776C107.841 267.773 107.841 267.77 107.841 267.767C107.841 267.764 107.841 267.761 107.841 267.759C107.841 267.756 107.841 267.753 107.841 267.75C107.841 267.747 107.841 267.745 107.841 267.742C107.841 267.739 107.841 267.736 107.841 267.733C107.841 267.73 107.841 267.728 107.841 267.725C107.841 267.722 107.841 267.719 107.841 267.716C107.841 267.714 107.841 267.711 107.841 267.708C107.841 267.705 107.841 267.702 107.841 267.699C107.841 267.697 107.841 267.694 107.841 267.691C107.841 267.688 107.841 267.685 107.841 267.683C107.841 267.68 107.841 267.677 107.841 267.674C107.841 267.671 107.841 267.668 107.841 267.666C107.841 267.663 107.841 267.66 107.841 267.657C107.841 267.654 107.841 267.652 107.841 267.649C107.841 267.646 107.841 267.643 107.841 267.64C107.841 267.638 107.841 267.635 107.841 267.632C107.841 267.629 107.841 267.626 107.841 267.623C107.841 267.621 107.841 267.618 107.841 267.615C107.841 267.612 107.841 267.609 107.841 267.607C107.841 267.604 107.841 267.601 107.841 267.598C107.841 267.595 107.841 267.593 107.841 267.59C107.841 267.587 107.841 267.584 107.841 267.581C107.841 267.579 107.841 267.576 107.841 267.573C107.841 267.57 107.841 267.567 107.841 267.565C107.841 267.562 107.841 267.559 107.841 267.556C107.841 267.553 107.841 267.551 107.841 267.548C107.841 267.545 107.841 267.542 107.841 267.539C107.841 267.536 107.841 267.534 107.841 267.531C107.841 267.528 107.841 267.525 107.841 267.522C107.841 267.52 107.841 267.517 107.841 267.514C107.841 267.511 107.841 267.508 107.841 267.506C107.841 267.503 107.841 267.5 107.841 267.497C107.841 267.494 107.841 267.492 107.841 267.489C107.841 267.486 107.841 267.483 107.841 267.48C107.841 267.478 107.841 267.475 107.841 267.472C107.841 267.469 107.841 267.466 107.841 267.464C107.841 267.461 107.841 267.458 107.841 267.455C107.841 267.452 107.841 267.45 107.841 267.447C107.841 267.444 107.841 267.441 107.841 267.439C107.841 267.436 107.841 267.433 107.841 267.43C107.841 267.427 107.841 267.425 107.841 267.422C107.841 267.419 107.841 267.416 107.841 267.413C107.841 267.411 107.841 267.408 107.841 267.405C107.841 267.402 107.841 267.399 107.841 267.397C107.841 267.394 107.841 267.391 107.841 267.388C107.841 267.385 107.841 267.383 107.841 267.38H107.641ZM107.641 271.934C107.641 275.152 107.819 278.281 108.177 281.321L108.376 281.297C108.019 278.266 107.841 275.144 107.841 271.934H107.641ZM108.178 281.328C108.446 282.759 108.737 283.947 109.052 284.89C109.366 285.832 109.705 286.537 110.073 286.997L110.229 286.872C109.883 286.439 109.552 285.76 109.241 284.827C108.931 283.895 108.642 282.717 108.375 281.291L108.178 281.328ZM110.08 287.005C112.053 288.978 114.206 290.415 116.542 291.314L116.614 291.127C114.307 290.24 112.177 288.819 110.221 286.864L110.08 287.005ZM116.542 291.314C118.873 292.211 121.206 292.66 123.54 292.66V292.46C121.233 292.46 118.924 292.016 116.614 291.127L116.542 291.314ZM123.54 292.66C125.513 292.66 127.309 292.391 128.928 291.851L128.864 291.661C127.269 292.193 125.495 292.46 123.54 292.46V292.66ZM128.924 291.852C135.005 290.063 141.173 287.112 147.428 283L147.319 282.833C141.077 286.936 134.927 289.878 128.868 291.66L128.924 291.852ZM147.427 283.001C153.86 278.89 158.425 274.863 161.113 270.919L160.948 270.806C158.281 274.719 153.741 278.728 147.32 282.832L147.427 283.001ZM161.113 270.92C162.363 269.133 163.336 267.985 164.036 267.46L163.916 267.3C163.188 267.846 162.198 269.019 160.949 270.805L161.113 270.92ZM164.039 267.458C164.482 267.103 164.878 266.84 165.226 266.666C165.576 266.491 165.872 266.408 166.119 266.408V266.208C165.83 266.208 165.501 266.304 165.137 266.487C164.771 266.67 164.364 266.942 163.914 267.302L164.039 267.458ZM166.119 266.408C166.539 266.408 166.84 266.554 167.042 266.835C167.247 267.123 167.358 267.567 167.358 268.183H167.558C167.558 267.55 167.445 267.056 167.204 266.719C166.959 266.376 166.591 266.208 166.119 266.208V266.408ZM167.358 268.183C167.358 268.528 167.271 269.054 167.093 269.766L167.287 269.815C167.466 269.099 167.558 268.554 167.558 268.183H167.358ZM167.095 269.759C166.918 270.289 166.653 270.909 166.297 271.621L166.476 271.711C166.834 270.994 167.104 270.364 167.285 269.822L167.095 269.759ZM142.037 145.133C141.549 145.035 141.006 145.234 140.417 145.687C139.826 146.142 139.172 146.865 138.456 147.851C137.022 149.822 135.323 152.865 133.358 156.974L133.539 157.06C135.502 152.954 137.195 149.925 138.617 147.968C139.329 146.989 139.97 146.284 140.539 145.846C141.11 145.406 141.593 145.248 141.998 145.329L142.037 145.133ZM133.357 156.975C129.606 165.196 125.676 176.363 121.57 190.473L121.762 190.529C125.867 176.423 129.793 165.267 133.539 157.059L133.357 156.975ZM121.57 190.473C120.319 194.761 118.891 200.209 117.284 206.817L117.478 206.865C119.085 200.258 120.513 194.813 121.762 190.529L121.57 190.473ZM117.283 206.82C115.855 213.428 114.427 220.304 112.998 227.447L113.194 227.487C114.623 220.344 116.051 213.469 117.479 206.862L117.283 206.82ZM112.998 227.447C111.57 234.414 110.498 240.756 109.784 246.474L109.982 246.498C110.696 240.787 111.767 234.45 113.194 227.487L112.998 227.447ZM109.973 246.53C115.685 234.922 120.863 224.476 125.504 215.19L125.325 215.1C120.683 224.387 115.506 234.834 109.793 246.442L109.973 246.53ZM125.504 215.19C130.148 205.9 133.721 197.234 136.222 189.191L136.031 189.132C133.533 197.162 129.965 205.818 125.325 215.1L125.504 215.19ZM136.22 189.195C138.544 182.76 140.241 175.878 141.313 168.55L141.115 168.521C140.045 175.837 138.351 182.705 136.032 189.128L136.22 189.195ZM141.313 168.552C142.563 161.228 143.189 155.418 143.189 151.124H142.989C142.989 155.402 142.365 161.199 141.116 168.519L141.313 168.552ZM143.189 151.124C143.189 149.425 143.1 148.079 142.919 147.088C142.829 146.593 142.716 146.183 142.578 145.861C142.441 145.54 142.276 145.299 142.078 145.151L141.958 145.311C142.117 145.43 142.264 145.636 142.394 145.94C142.524 146.243 142.634 146.637 142.723 147.124C142.9 148.097 142.989 149.43 142.989 151.124H143.189Z" fill="black" mask="url(#path-1-inside-1_175_165)"/>
</svg>
