<svg width="587" height="242" viewBox="0 0 587 242" fill="none" xmlns="http://www.w3.org/2000/svg">
<path d="M331 174.585C375.095 157.287 487.507 135.979 584.393 189.138" stroke="#97CEFA" stroke-width="10"/>
<path d="M9.9 43.1C9.9 46.86 10.64 49.76 12.12 51.8C13.64 53.8 15.96 54.8 19.08 54.8C20.44 54.8 21.78 54.64 23.1 54.32C24.42 54 26 53.44 27.84 52.64L29.58 57.08C27.62 57.96 25.76 58.6 24 59C22.24 59.4 20.54 59.6 18.9 59.6C14.18 59.6 10.6 58.12 8.16 55.16C5.72 52.2 4.5 48.18 4.5 43.1V34.1C4.5 29.02 5.72 25 8.16 22.04C10.6 19.08 14.18 17.6 18.9 17.6C20.54 17.6 22.24 17.8 24 18.2C25.8 18.6 27.62 19.24 29.46 20.12L27.78 24.62C24.54 23.18 21.64 22.46 19.08 22.46C15.96 22.46 13.64 23.46 12.12 25.46C10.64 27.46 9.9 30.34 9.9 34.1V43.1ZM51.2316 33.62C49.4316 33.62 47.6716 33.94 45.9516 34.58C44.2716 35.22 42.4716 36.44 40.5516 38.24V59H35.6316V29.3H40.3116V34.1C42.3516 32.1 44.2116 30.7 45.8916 29.9C47.6116 29.1 49.3916 28.7 51.2316 28.7V33.62ZM62.8828 22.04H57.3628V16.52H62.8828V22.04ZM62.5828 59H57.6628V29.3H62.5828V59ZM94.9102 59.3C93.0702 59.3 91.5902 58.88 90.4702 58.04C89.3902 57.2 88.6302 56.16 88.1902 54.92C86.2302 56.64 84.4502 57.86 82.8502 58.58C81.2502 59.26 79.6502 59.6 78.0502 59.6C75.4502 59.6 73.5302 58.76 72.2902 57.08C71.0502 55.4 70.4302 53.34 70.4302 50.9C70.4302 49.26 70.7302 47.8 71.3302 46.52C71.9302 45.24 72.9502 44.24 74.3902 43.52C75.8302 42.76 77.7702 42.38 80.2102 42.38C81.2902 42.38 82.4702 42.46 83.7502 42.62C85.0302 42.74 86.3302 42.9 87.6502 43.1V39.08C87.6502 36.84 87.1502 35.32 86.1502 34.52C85.1902 33.68 83.7702 33.26 81.8902 33.26C79.3302 33.26 76.4702 33.96 73.3102 35.36L71.7502 31.28C73.5902 30.44 75.3502 29.8 77.0302 29.36C78.7102 28.92 80.4102 28.7 82.1302 28.7C84.9302 28.7 87.0702 29.16 88.5502 30.08C90.0302 31 91.0502 32.22 91.6102 33.74C92.1702 35.26 92.4502 36.92 92.4502 38.72V51.56C92.4502 52.48 92.6302 53.26 92.9902 53.9C93.3502 54.5 94.0702 54.8 95.1502 54.8H95.8102V59.3H94.9102ZM75.2902 50.84C75.2902 52.2 75.6102 53.3 76.2502 54.14C76.8902 54.98 77.8102 55.4 79.0102 55.4C80.0502 55.4 81.2502 55.1 82.6102 54.5C83.9702 53.86 85.6502 52.6 87.6502 50.72V46.94C84.9302 46.5 82.5302 46.28 80.4502 46.28C78.6102 46.28 77.2902 46.66 76.4902 47.42C75.6902 48.18 75.2902 49.32 75.2902 50.84ZM117.06 33.32C115.94 33.32 114.62 33.6 113.1 34.16C111.62 34.72 109.82 35.86 107.7 37.58V59H102.78V29.3H107.46V33.44C109.58 31.64 111.5 30.4 113.22 29.72C114.98 29.04 116.66 28.7 118.26 28.7C121.02 28.7 123.12 29.58 124.56 31.34C126.04 33.06 126.78 35.52 126.78 38.72V59H121.86V39.44C121.86 35.36 120.26 33.32 117.06 33.32ZM155.117 59V54.86C153.277 56.62 151.597 57.86 150.077 58.58C148.597 59.26 147.057 59.6 145.457 59.6C142.297 59.6 139.857 58.4 138.137 56C136.457 53.6 135.617 50.24 135.617 45.92V42.44C135.617 38.24 136.657 34.9 138.737 32.42C140.857 29.94 143.917 28.7 147.917 28.7C149.077 28.7 150.237 28.82 151.397 29.06C152.557 29.3 153.717 29.64 154.877 30.08V14.6H159.797V59H155.117ZM140.717 45.92C140.717 49.04 141.197 51.34 142.157 52.82C143.157 54.26 144.637 54.98 146.597 54.98C147.757 54.98 148.957 54.7 150.197 54.14C151.437 53.54 152.997 52.32 154.877 50.48V34.64C153.717 34.12 152.597 33.76 151.517 33.56C150.437 33.32 149.377 33.2 148.337 33.2C145.617 33.2 143.657 34.02 142.457 35.66C141.297 37.3 140.717 39.56 140.717 42.44V45.92ZM193.917 42.32V45.92C193.917 50.16 192.817 53.5 190.617 55.94C188.457 58.38 185.357 59.6 181.317 59.6C177.317 59.6 174.217 58.38 172.017 55.94C169.817 53.5 168.717 50.16 168.717 45.92V42.32C168.717 38.16 169.797 34.86 171.957 32.42C174.157 29.94 177.277 28.7 181.317 28.7C185.357 28.7 188.457 29.94 190.617 32.42C192.817 34.86 193.917 38.16 193.917 42.32ZM188.817 42.32C188.817 39.48 188.177 37.26 186.897 35.66C185.617 34.02 183.757 33.2 181.317 33.2C178.917 33.2 177.057 34.02 175.737 35.66C174.457 37.26 173.817 39.48 173.817 42.32V45.92C173.817 48.88 174.457 51.16 175.737 52.76C177.057 54.36 178.917 55.16 181.317 55.16C183.757 55.16 185.617 54.36 186.897 52.76C188.177 51.16 188.817 48.88 188.817 45.92V42.32ZM221.145 22.04H215.625V16.52H221.145V22.04ZM220.845 59H215.925V29.3H220.845V59ZM249.512 59V54.86C247.672 56.62 245.992 57.86 244.472 58.58C242.992 59.26 241.452 59.6 239.852 59.6C236.692 59.6 234.252 58.4 232.532 56C230.852 53.6 230.012 50.24 230.012 45.92V42.44C230.012 38.24 231.052 34.9 233.132 32.42C235.252 29.94 238.312 28.7 242.312 28.7C243.472 28.7 244.632 28.82 245.792 29.06C246.952 29.3 248.112 29.64 249.272 30.08V14.6H254.192V59H249.512ZM235.112 45.92C235.112 49.04 235.592 51.34 236.552 52.82C237.552 54.26 239.032 54.98 240.992 54.98C242.152 54.98 243.352 54.7 244.592 54.14C245.832 53.54 247.392 52.32 249.272 50.48V34.64C248.112 34.12 246.992 33.76 245.912 33.56C244.832 33.32 243.772 33.2 242.732 33.2C240.012 33.2 238.052 34.02 236.852 35.66C235.692 37.3 235.112 39.56 235.112 42.44V45.92ZM286.332 57.26C284.532 58.14 282.732 58.74 280.932 59.06C279.132 59.42 277.472 59.6 275.952 59.6C271.672 59.6 268.472 58.38 266.352 55.94C264.272 53.5 263.232 50.16 263.232 45.92V42.32C263.232 38.2 264.272 34.9 266.352 32.42C268.472 29.94 271.452 28.7 275.292 28.7C277.332 28.7 279.192 29.12 280.872 29.96C282.592 30.76 283.952 32 284.952 33.68C285.992 35.32 286.512 37.44 286.512 40.04C286.512 41.72 286.272 43.64 285.792 45.8H268.092V45.92C268.092 48.96 268.712 51.26 269.952 52.82C271.232 54.38 273.272 55.16 276.072 55.16C277.352 55.16 278.752 55 280.272 54.68C281.832 54.36 283.352 53.86 284.832 53.18L286.332 57.26ZM275.292 33.02C272.972 33.02 271.212 33.78 270.012 35.3C268.852 36.78 268.212 38.88 268.092 41.6H281.532C281.652 40.88 281.712 40.2 281.712 39.56C281.712 37.32 281.072 35.68 279.792 34.64C278.552 33.56 277.052 33.02 275.292 33.02ZM277.452 24.26H273.192L278.592 14.3L283.272 16.46L277.452 24.26ZM300.246 22.04H294.726V16.52H300.246V22.04ZM299.946 59H295.026V29.3H299.946V59ZM332.273 59.3C330.433 59.3 328.953 58.88 327.833 58.04C326.753 57.2 325.993 56.16 325.553 54.92C323.593 56.64 321.813 57.86 320.213 58.58C318.613 59.26 317.013 59.6 315.413 59.6C312.813 59.6 310.893 58.76 309.653 57.08C308.413 55.4 307.793 53.34 307.793 50.9C307.793 49.26 308.093 47.8 308.693 46.52C309.293 45.24 310.313 44.24 311.753 43.52C313.193 42.76 315.133 42.38 317.573 42.38C318.653 42.38 319.833 42.46 321.113 42.62C322.393 42.74 323.693 42.9 325.013 43.1V39.08C325.013 36.84 324.513 35.32 323.513 34.52C322.553 33.68 321.133 33.26 319.253 33.26C316.693 33.26 313.833 33.96 310.673 35.36L309.113 31.28C310.953 30.44 312.713 29.8 314.393 29.36C316.073 28.92 317.773 28.7 319.493 28.7C322.293 28.7 324.433 29.16 325.913 30.08C327.393 31 328.413 32.22 328.973 33.74C329.533 35.26 329.813 36.92 329.813 38.72V51.56C329.813 52.48 329.993 53.26 330.353 53.9C330.713 54.5 331.433 54.8 332.513 54.8H333.173V59.3H332.273ZM312.653 50.84C312.653 52.2 312.973 53.3 313.613 54.14C314.253 54.98 315.173 55.4 316.373 55.4C317.413 55.4 318.613 55.1 319.973 54.5C321.333 53.86 323.013 52.6 325.013 50.72V46.94C322.293 46.5 319.893 46.28 317.813 46.28C315.973 46.28 314.653 46.66 313.853 47.42C313.053 48.18 312.653 49.32 312.653 50.84ZM347.403 55.22C351.403 55.22 353.403 53.86 353.403 51.14C353.403 49.98 353.043 49.06 352.323 48.38C351.603 47.7 350.283 47.12 348.363 46.64L345.063 45.8C342.623 45.2 340.803 44.16 339.603 42.68C338.403 41.16 337.803 39.36 337.803 37.28C337.803 35.76 338.143 34.36 338.823 33.08C339.503 31.76 340.583 30.7 342.063 29.9C343.543 29.1 345.463 28.7 347.823 28.7C349.343 28.7 350.883 28.88 352.443 29.24C354.043 29.56 355.663 30.12 357.303 30.92L355.743 35.06C352.823 33.74 350.183 33.08 347.823 33.08C344.343 33.08 342.603 34.38 342.603 36.98C342.603 37.98 342.923 38.84 343.563 39.56C344.203 40.28 345.403 40.86 347.163 41.3L350.463 42.14C353.103 42.78 355.043 43.82 356.283 45.26C357.523 46.7 358.143 48.56 358.143 50.84C358.143 52.48 357.783 53.98 357.063 55.34C356.383 56.66 355.263 57.7 353.703 58.46C352.183 59.22 350.123 59.6 347.523 59.6C345.803 59.6 344.083 59.42 342.363 59.06C340.683 58.7 338.943 58.12 337.143 57.32L338.463 53.24C340.183 53.92 341.743 54.42 343.143 54.74C344.543 55.06 345.963 55.22 347.403 55.22ZM400.59 57.26C398.79 58.14 396.99 58.74 395.19 59.06C393.39 59.42 391.73 59.6 390.21 59.6C385.93 59.6 382.73 58.38 380.61 55.94C378.53 53.5 377.49 50.16 377.49 45.92V42.32C377.49 38.2 378.53 34.9 380.61 32.42C382.73 29.94 385.71 28.7 389.55 28.7C391.59 28.7 393.45 29.12 395.13 29.96C396.85 30.76 398.21 32 399.21 33.68C400.25 35.32 400.77 37.44 400.77 40.04C400.77 41.72 400.53 43.64 400.05 45.8H382.35V45.92C382.35 48.96 382.97 51.26 384.21 52.82C385.49 54.38 387.53 55.16 390.33 55.16C391.61 55.16 393.01 55 394.53 54.68C396.09 54.36 397.61 53.86 399.09 53.18L400.59 57.26ZM389.55 33.02C387.23 33.02 385.47 33.78 384.27 35.3C383.11 36.78 382.47 38.88 382.35 41.6H395.79C395.91 40.88 395.97 40.2 395.97 39.56C395.97 37.32 395.33 35.68 394.05 34.64C392.81 33.56 391.31 33.02 389.55 33.02ZM26.82 129.26C25.02 130.14 23.22 130.74 21.42 131.06C19.62 131.42 17.96 131.6 16.44 131.6C12.16 131.6 8.96 130.38 6.84 127.94C4.76 125.5 3.72 122.16 3.72 117.92V114.32C3.72 110.2 4.76 106.9 6.84 104.42C8.96 101.94 11.94 100.7 15.78 100.7C17.82 100.7 19.68 101.12 21.36 101.96C23.08 102.76 24.44 104 25.44 105.68C26.48 107.32 27 109.44 27 112.04C27 113.72 26.76 115.64 26.28 117.8H8.58V117.92C8.58 120.96 9.2 123.26 10.44 124.82C11.72 126.38 13.76 127.16 16.56 127.16C17.84 127.16 19.24 127 20.76 126.68C22.32 126.36 23.84 125.86 25.32 125.18L26.82 129.26ZM15.78 105.02C13.46 105.02 11.7 105.78 10.5 107.3C9.34 108.78 8.7 110.88 8.58 113.6H22.02C22.14 112.88 22.2 112.2 22.2 111.56C22.2 109.32 21.56 107.68 20.28 106.64C19.04 105.56 17.54 105.02 15.78 105.02ZM42.7744 127.22C46.7744 127.22 48.7744 125.86 48.7744 123.14C48.7744 121.98 48.4144 121.06 47.6944 120.38C46.9744 119.7 45.6544 119.12 43.7344 118.64L40.4344 117.8C37.9944 117.2 36.1744 116.16 34.9744 114.68C33.7744 113.16 33.1744 111.36 33.1744 109.28C33.1744 107.76 33.5144 106.36 34.1944 105.08C34.8744 103.76 35.9544 102.7 37.4344 101.9C38.9144 101.1 40.8344 100.7 43.1944 100.7C44.7144 100.7 46.2544 100.88 47.8144 101.24C49.4144 101.56 51.0344 102.12 52.6744 102.92L51.1144 107.06C48.1944 105.74 45.5544 105.08 43.1944 105.08C39.7144 105.08 37.9744 106.38 37.9744 108.98C37.9744 109.98 38.2944 110.84 38.9344 111.56C39.5744 112.28 40.7744 112.86 42.5344 113.3L45.8344 114.14C48.4744 114.78 50.4144 115.82 51.6544 117.26C52.8944 118.7 53.5144 120.56 53.5144 122.84C53.5144 124.48 53.1544 125.98 52.4344 127.34C51.7544 128.66 50.6344 129.7 49.0744 130.46C47.5544 131.22 45.4944 131.6 42.8944 131.6C41.1744 131.6 39.4544 131.42 37.7344 131.06C36.0544 130.7 34.3144 130.12 32.5144 129.32L33.8344 125.24C35.5544 125.92 37.1144 126.42 38.5144 126.74C39.9144 127.06 41.3344 127.22 42.7744 127.22ZM77.6742 129.92C75.4342 131.04 73.0542 131.6 70.5342 131.6C68.3742 131.6 66.6742 131.16 65.4342 130.28C64.2342 129.4 63.3742 128.22 62.8542 126.74C62.3742 125.26 62.1342 123.62 62.1342 121.82V105.62H56.9742V101.3H62.1342V93.02H67.0542V101.3H76.7742V105.62H67.0542V121.64C67.0542 123.72 67.3942 125.16 68.0742 125.96C68.7942 126.72 69.8942 127.1 71.3742 127.1C72.0942 127.1 72.8342 127.02 73.5942 126.86C74.3942 126.66 75.2542 126.34 76.1742 125.9L77.6742 129.92ZM105.867 131.3C104.027 131.3 102.547 130.88 101.427 130.04C100.347 129.2 99.5872 128.16 99.1472 126.92C97.1872 128.64 95.4072 129.86 93.8072 130.58C92.2072 131.26 90.6072 131.6 89.0072 131.6C86.4072 131.6 84.4872 130.76 83.2472 129.08C82.0072 127.4 81.3872 125.34 81.3872 122.9C81.3872 121.26 81.6872 119.8 82.2872 118.52C82.8872 117.24 83.9072 116.24 85.3472 115.52C86.7872 114.76 88.7272 114.38 91.1672 114.38C92.2472 114.38 93.4272 114.46 94.7072 114.62C95.9872 114.74 97.2872 114.9 98.6072 115.1V111.08C98.6072 108.84 98.1072 107.32 97.1072 106.52C96.1472 105.68 94.7272 105.26 92.8472 105.26C90.2872 105.26 87.4272 105.96 84.2672 107.36L82.7072 103.28C84.5472 102.44 86.3072 101.8 87.9872 101.36C89.6672 100.92 91.3672 100.7 93.0872 100.7C95.8872 100.7 98.0272 101.16 99.5072 102.08C100.987 103 102.007 104.22 102.567 105.74C103.127 107.26 103.407 108.92 103.407 110.72V123.56C103.407 124.48 103.587 125.26 103.947 125.9C104.307 126.5 105.027 126.8 106.107 126.8H106.767V131.3H105.867ZM86.2472 122.84C86.2472 124.2 86.5672 125.3 87.2072 126.14C87.8472 126.98 88.7672 127.4 89.9672 127.4C91.0072 127.4 92.2072 127.1 93.5672 126.5C94.9272 125.86 96.6072 124.6 98.6072 122.72V118.94C95.8872 118.5 93.4872 118.28 91.4072 118.28C89.5672 118.28 88.2472 118.66 87.4472 119.42C86.6472 120.18 86.2472 121.32 86.2472 122.84ZM127.717 105.32C126.597 105.32 125.337 105.62 123.937 106.22C122.537 106.78 120.777 107.9 118.657 109.58V131H113.737V101.3H118.417V105.44C120.537 103.68 122.417 102.46 124.057 101.78C125.697 101.06 127.317 100.7 128.917 100.7C130.797 100.7 132.357 101.14 133.597 102.02C134.837 102.86 135.757 104.08 136.357 105.68C138.557 103.8 140.517 102.5 142.237 101.78C143.997 101.06 145.717 100.7 147.397 100.7C150.037 100.7 152.057 101.58 153.457 103.34C154.857 105.06 155.557 107.52 155.557 110.72V131H150.637V111.44C150.637 107.36 149.157 105.32 146.197 105.32C145.077 105.32 143.797 105.62 142.357 106.22C140.957 106.78 139.197 107.9 137.077 109.58C137.117 109.74 137.137 109.92 137.137 110.12C137.137 110.32 137.137 110.52 137.137 110.72V131H132.217V111.44C132.217 107.36 130.717 105.32 127.717 105.32ZM177.765 131.6C175.525 131.6 173.205 131.14 170.805 130.22V143.78H165.885V101.3H170.565V105.5C172.405 103.74 174.085 102.5 175.605 101.78C177.125 101.06 178.685 100.7 180.285 100.7C183.445 100.7 185.865 101.9 187.545 104.3C189.265 106.7 190.125 110.08 190.125 114.44V117.92C190.125 122.08 189.065 125.4 186.945 127.88C184.865 130.36 181.805 131.6 177.765 131.6ZM179.085 105.32C177.925 105.32 176.725 105.62 175.485 106.22C174.245 106.82 172.685 108.04 170.805 109.88V125.72C171.965 126.24 173.085 126.62 174.165 126.86C175.245 127.06 176.305 127.16 177.345 127.16C180.065 127.16 182.025 126.34 183.225 124.7C184.425 123.02 185.025 120.76 185.025 117.92V114.44C185.025 111.32 184.525 109.02 183.525 107.54C182.565 106.06 181.085 105.32 179.085 105.32ZM220.945 131.3C219.105 131.3 217.625 130.88 216.505 130.04C215.425 129.2 214.665 128.16 214.225 126.92C212.265 128.64 210.485 129.86 208.885 130.58C207.285 131.26 205.685 131.6 204.085 131.6C201.485 131.6 199.565 130.76 198.325 129.08C197.085 127.4 196.465 125.34 196.465 122.9C196.465 121.26 196.765 119.8 197.365 118.52C197.965 117.24 198.985 116.24 200.425 115.52C201.865 114.76 203.805 114.38 206.245 114.38C207.325 114.38 208.505 114.46 209.785 114.62C211.065 114.74 212.365 114.9 213.685 115.1V111.08C213.685 108.84 213.185 107.32 212.185 106.52C211.225 105.68 209.805 105.26 207.925 105.26C205.365 105.26 202.505 105.96 199.345 107.36L197.785 103.28C199.625 102.44 201.385 101.8 203.065 101.36C204.745 100.92 206.445 100.7 208.165 100.7C210.965 100.7 213.105 101.16 214.585 102.08C216.065 103 217.085 104.22 217.645 105.74C218.205 107.26 218.485 108.92 218.485 110.72V123.56C218.485 124.48 218.665 125.26 219.025 125.9C219.385 126.5 220.105 126.8 221.185 126.8H221.845V131.3H220.945ZM201.325 122.84C201.325 124.2 201.645 125.3 202.285 126.14C202.925 126.98 203.845 127.4 205.045 127.4C206.085 127.4 207.285 127.1 208.645 126.5C210.005 125.86 211.685 124.6 213.685 122.72V118.94C210.965 118.5 208.565 118.28 206.485 118.28C204.645 118.28 203.325 118.66 202.525 119.42C201.725 120.18 201.325 121.32 201.325 122.84ZM243.095 105.32C241.975 105.32 240.655 105.6 239.135 106.16C237.655 106.72 235.855 107.86 233.735 109.58V131H228.815V101.3H233.495V105.44C235.615 103.64 237.535 102.4 239.255 101.72C241.015 101.04 242.695 100.7 244.295 100.7C247.055 100.7 249.155 101.58 250.595 103.34C252.075 105.06 252.815 107.52 252.815 110.72V131H247.895V111.44C247.895 107.36 246.295 105.32 243.095 105.32ZM281.153 131V126.86C279.313 128.62 277.633 129.86 276.113 130.58C274.633 131.26 273.093 131.6 271.493 131.6C268.333 131.6 265.893 130.4 264.173 128C262.493 125.6 261.653 122.24 261.653 117.92V114.44C261.653 110.24 262.693 106.9 264.773 104.42C266.893 101.94 269.953 100.7 273.953 100.7C275.113 100.7 276.273 100.82 277.433 101.06C278.593 101.3 279.753 101.64 280.913 102.08V86.6H285.833V131H281.153ZM266.753 117.92C266.753 121.04 267.233 123.34 268.193 124.82C269.193 126.26 270.673 126.98 272.633 126.98C273.793 126.98 274.993 126.7 276.233 126.14C277.473 125.54 279.033 124.32 280.913 122.48V106.64C279.753 106.12 278.633 105.76 277.553 105.56C276.473 105.32 275.413 105.2 274.373 105.2C271.653 105.2 269.693 106.02 268.493 107.66C267.333 109.3 266.753 111.56 266.753 114.44V117.92ZM319.952 114.32V117.92C319.952 122.16 318.852 125.5 316.652 127.94C314.492 130.38 311.392 131.6 307.352 131.6C303.352 131.6 300.252 130.38 298.052 127.94C295.852 125.5 294.752 122.16 294.752 117.92V114.32C294.752 110.16 295.832 106.86 297.992 104.42C300.192 101.94 303.312 100.7 307.352 100.7C311.392 100.7 314.492 101.94 316.652 104.42C318.852 106.86 319.952 110.16 319.952 114.32ZM314.852 114.32C314.852 111.48 314.212 109.26 312.932 107.66C311.652 106.02 309.792 105.2 307.352 105.2C304.952 105.2 303.092 106.02 301.772 107.66C300.492 109.26 299.852 111.48 299.852 114.32V117.92C299.852 120.88 300.492 123.16 301.772 124.76C303.092 126.36 304.952 127.16 307.352 127.16C309.792 127.16 311.652 126.36 312.932 124.76C314.212 123.16 314.852 120.88 314.852 117.92V114.32Z" fill="black"/>
<path d="M349.22 127.22C353.22 127.22 355.22 125.86 355.22 123.14C355.22 121.98 354.86 121.06 354.14 120.38C353.42 119.7 352.1 119.12 350.18 118.64L346.88 117.8C344.44 117.2 342.62 116.16 341.42 114.68C340.22 113.16 339.62 111.36 339.62 109.28C339.62 107.76 339.96 106.36 340.64 105.08C341.32 103.76 342.4 102.7 343.88 101.9C345.36 101.1 347.28 100.7 349.64 100.7C351.16 100.7 352.7 100.88 354.26 101.24C355.86 101.56 357.48 102.12 359.12 102.92L357.56 107.06C354.64 105.74 352 105.08 349.64 105.08C346.16 105.08 344.42 106.38 344.42 108.98C344.42 109.98 344.74 110.84 345.38 111.56C346.02 112.28 347.22 112.86 348.98 113.3L352.28 114.14C354.92 114.78 356.86 115.82 358.1 117.26C359.34 118.7 359.96 120.56 359.96 122.84C359.96 124.48 359.6 125.98 358.88 127.34C358.2 128.66 357.08 129.7 355.52 130.46C354 131.22 351.94 131.6 349.34 131.6C347.62 131.6 345.9 131.42 344.18 131.06C342.5 130.7 340.76 130.12 338.96 129.32L340.28 125.24C342 125.92 343.56 126.42 344.96 126.74C346.36 127.06 347.78 127.22 349.22 127.22ZM391.32 114.32V117.92C391.32 122.16 390.22 125.5 388.02 127.94C385.86 130.38 382.76 131.6 378.72 131.6C374.72 131.6 371.62 130.38 369.42 127.94C367.22 125.5 366.12 122.16 366.12 117.92V114.32C366.12 110.16 367.2 106.86 369.36 104.42C371.56 101.94 374.68 100.7 378.72 100.7C382.76 100.7 385.86 101.94 388.02 104.42C390.22 106.86 391.32 110.16 391.32 114.32ZM386.22 114.32C386.22 111.48 385.58 109.26 384.3 107.66C383.02 106.02 381.16 105.2 378.72 105.2C376.32 105.2 374.46 106.02 373.14 107.66C371.86 109.26 371.22 111.48 371.22 114.32V117.92C371.22 120.88 371.86 123.16 373.14 124.76C374.46 126.36 376.32 127.16 378.72 127.16C381.16 127.16 383.02 126.36 384.3 124.76C385.58 123.16 386.22 120.88 386.22 117.92V114.32ZM414.54 105.32C413.42 105.32 412.1 105.6 410.58 106.16C409.1 106.72 407.3 107.86 405.18 109.58V131H400.26V101.3H404.94V105.44C407.06 103.64 408.98 102.4 410.7 101.72C412.46 101.04 414.14 100.7 415.74 100.7C418.5 100.7 420.6 101.58 422.04 103.34C423.52 105.06 424.26 107.52 424.26 110.72V131H419.34V111.44C419.34 107.36 417.74 105.32 414.54 105.32ZM448.818 105.32C447.698 105.32 446.378 105.6 444.858 106.16C443.378 106.72 441.578 107.86 439.458 109.58V131H434.538V86.6H439.458V105.26C441.538 103.5 443.418 102.3 445.098 101.66C446.778 101.02 448.418 100.7 450.018 100.7C452.778 100.7 454.878 101.58 456.318 103.34C457.798 105.06 458.538 107.52 458.538 110.72V131H453.618V111.44C453.618 107.36 452.018 105.32 448.818 105.32ZM492.335 114.32V117.92C492.335 122.16 491.235 125.5 489.035 127.94C486.875 130.38 483.775 131.6 479.735 131.6C475.735 131.6 472.635 130.38 470.435 127.94C468.235 125.5 467.135 122.16 467.135 117.92V114.32C467.135 110.16 468.215 106.86 470.375 104.42C472.575 101.94 475.695 100.7 479.735 100.7C483.775 100.7 486.875 101.94 489.035 104.42C491.235 106.86 492.335 110.16 492.335 114.32ZM487.235 114.32C487.235 111.48 486.595 109.26 485.315 107.66C484.035 106.02 482.175 105.2 479.735 105.2C477.335 105.2 475.475 106.02 474.155 107.66C472.875 109.26 472.235 111.48 472.235 114.32V117.92C472.235 120.88 472.875 123.16 474.155 124.76C475.475 126.36 477.335 127.16 479.735 127.16C482.175 127.16 484.035 126.36 485.315 124.76C486.595 123.16 487.235 120.88 487.235 117.92V114.32ZM508.536 127.22C512.536 127.22 514.536 125.86 514.536 123.14C514.536 121.98 514.176 121.06 513.456 120.38C512.736 119.7 511.416 119.12 509.496 118.64L506.196 117.8C503.756 117.2 501.936 116.16 500.736 114.68C499.536 113.16 498.936 111.36 498.936 109.28C498.936 107.76 499.276 106.36 499.956 105.08C500.636 103.76 501.716 102.7 503.196 101.9C504.676 101.1 506.596 100.7 508.956 100.7C510.476 100.7 512.016 100.88 513.576 101.24C515.176 101.56 516.796 102.12 518.436 102.92L516.876 107.06C513.956 105.74 511.316 105.08 508.956 105.08C505.476 105.08 503.736 106.38 503.736 108.98C503.736 109.98 504.056 110.84 504.696 111.56C505.336 112.28 506.536 112.86 508.296 113.3L511.596 114.14C514.236 114.78 516.176 115.82 517.416 117.26C518.656 118.7 519.276 120.56 519.276 122.84C519.276 124.48 518.916 125.98 518.196 127.34C517.516 128.66 516.396 129.7 514.836 130.46C513.316 131.22 511.256 131.6 508.656 131.6C506.936 131.6 505.216 131.42 503.496 131.06C501.816 130.7 500.076 130.12 498.276 129.32L499.596 125.24C501.316 125.92 502.876 126.42 504.276 126.74C505.676 127.06 507.096 127.22 508.536 127.22ZM530.356 131H524.836V125.54H530.356V131Z" fill="#97D5B1"/>
</svg>
